<?xml version="1.0" encoding="utf-8"?>
<!-- Generator: Adobe Illustrator 19.0.0, SVG Export Plug-In . SVG Version: 6.00 Build 0)  -->
<!DOCTYPE svg PUBLIC "-//W3C//DTD SVG 1.1//EN" "http://www.w3.org/Graphics/SVG/1.1/DTD/svg11.dtd">
<svg version="1.1" id="Calque_1" xmlns:sketch="http://www.bohemiancoding.com/sketch/ns"
	 xmlns="http://www.w3.org/2000/svg" xmlns:xlink="http://www.w3.org/1999/xlink" x="0px" y="0px" width="512px" height="512px"
	 viewBox="-465 -193 512 512" style="enable-background:new -465 -193 512 512;" xml:space="preserve">
<style type="text/css">
	.st0{fill:#979797;}
</style>
<title>External link</title>
<desc>Created with Sketch.</desc>
<g>
	<g>
		<g>
			<path class="st0" d="M-25.5,267h-369c-11.3,0-20.5-9.2-20.5-20.5v-369c0-11.3,9.2-20.5,20.5-20.5h102.9
				c11.3,0,20.5,9.2,20.5,20.5s-9.2,20.5-20.5,20.5H-374v328h328v-90.2c0-11.3,9.2-20.5,20.5-20.5S-5,124.5-5,135.8v110.7
				C-5,257.8-14.2,267-25.5,267z M-189.3,62.2c-5.2,0-10.4-2-14.4-5.9c-8-8-8.1-20.9-0.1-29l127.6-128.9h-93
				c-11.3,0-20.5-9.2-20.5-20.5s9.2-20.5,20.5-20.5h143.7c11.3,0,20.5,9.2,20.5,20.5V22c0,11.3-9.2,20.5-20.5,20.5S-46,33.3-46,22
				v-95.9l-128.7,130C-178.7,60.2-184,62.2-189.3,62.2z"/>
		</g>
	</g>
</g>
</svg>
