<?xml version="1.0" encoding="utf-8"?>
<!-- Generator: Adobe Illustrator 19.0.0, SVG Export Plug-In . SVG Version: 6.00 Build 0)  -->
<!DOCTYPE svg PUBLIC "-//W3C//DTD SVG 1.1//EN" "http://www.w3.org/Graphics/SVG/1.1/DTD/svg11.dtd">
<svg version="1.1" id="Calque_1" xmlns="http://www.w3.org/2000/svg" xmlns:xlink="http://www.w3.org/1999/xlink" x="0px" y="0px"
	 width="512px" height="512px" viewBox="156 -156 512 512" style="enable-background:new 156 -156 512 512;" xml:space="preserve">
<g id="Page-1" sketch:type="MSPage">
	<g id="Desktop-HD" transform="translate(-706.000000, -3870.000000)" sketch:type="MSArtboardGroup">
		<path d="M909.4,4146.5c-0.1,0-0.1,0-0.4,0h0c-2.3-0.1-4.4-0.5-6.4-1.3c-2.1-0.8-4.1-2.1-5.8-3.8c0,0,0,0,0,0c0,0,0-0.1-0.1-0.1
			c0,0,0,0,0,0c0,0,0,0,0,0h0c0,0,0,0,0,0l0,0c0,0,0,0,0,0l0,0l0,0c0,0-0.1-0.1,0-0.1c0,0,0,0,0,0h0c0,0,0-0.1-0.1-0.1l0,0
			c-1.7-1.7-3-3.7-3.9-5.8c-0.9-2.1-1.3-4.3-1.4-6.7c0,0,0,0,0,0c0,0,0,0,0-0.1l0,0c0-0.1,0-0.2,0-0.2v0v-315.3c0-0.1,0-0.2,0-0.3
			v-0.9c0-10.1,8.2-18.3,18.3-18.3h417.2c10.1,0,18.3,8.2,18.3,18.3v2.5c0,0.1,0,0.2,0,0.3v313.8c0,2.5-0.5,4.9-1.4,7.1
			c-0.9,2.1-2.2,4-3.8,5.7c0,0,0,0,0,0l0,0c0,0,0,0,0,0c0,0,0,0,0,0l0,0c0,0,0,0,0,0.1c0,0,0,0,0,0l0,0c0,0,0,0,0,0l0,0c0,0,0,0,0,0
			l0,0c0,0,0,0,0,0l0,0l0,0c0,0,0,0,0,0l0,0c-1.7,1.6-3.5,2.8-5.5,3.7h0c0,0,0,0,0,0c-2.2,0.9-4.6,1.4-7.1,1.4H909.4
			C909.4,4146.5,909.4,4146.5,909.4,4146.5z M953.2,4110h329.7l-111.3-112.4l-39.7,40.3c-6.9,7-19.1,7-26,0l-40.5-41.1L953.2,4110z
			 M1197.2,3971.6l111.2,112.3v-225L1197.2,3971.6z M927.7,3857.3v226.6l112-113.1L927.7,3857.3z M953.2,3831.2l165.6,167.9
			l39.6-40.2c0.1-0.1,0.1-0.1,0.2-0.2l124.5-126.3L953.2,3831.2z"/>
	</g>
</g>
</svg>
