<?xml version="1.0" standalone="no"?>
<!DOCTYPE svg PUBLIC "-//W3C//DTD SVG 20010904//EN"
 "http://www.w3.org/TR/2001/REC-SVG-20010904/DTD/svg10.dtd">
<svg version="1.0" xmlns="http://www.w3.org/2000/svg"
 width="260.000000pt" height="260.000000pt" viewBox="0 0 260.000000 260.000000"
 preserveAspectRatio="xMidYMid meet">
<metadata>
Created by potrace 1.11, written by Peter Selinger 2001-2013
</metadata>
<g transform="translate(0.000000,260.000000) scale(0.100000,-0.100000)"
fill="#000000" stroke="none">
<path d="M1100 2286 c-436 -92 -764 -460 -798 -894 -4 -48 -4 -127 -1 -177 30
-418 335 -779 754 -891 97 -26 390 -27 482 -2 252 70 452 209 593 413 129 188
186 406 169 650 -30 419 -332 775 -754 891 -82 22 -356 28 -445 10z m425 -105
c260 -68 478 -248 595 -492 65 -138 83 -220 83 -389 0 -169 -18 -251 -83 -389
-117 -244 -331 -421 -595 -492 -115 -32 -335 -32 -450 0 -322 87 -569 334
-656 656 -32 115 -32 335 0 450 94 348 369 603 724 671 98 19 279 11 382 -15z"/>
<path d="M905 1695 c-50 -49 -21 -98 64 -108 109 -13 207 -80 252 -175 14 -27
25 -76 30 -126 9 -104 16 -128 51 -200 58 -116 177 -202 312 -227 76 -14 109
-5 128 36 10 22 8 30 -9 53 -16 21 -32 29 -74 35 -112 16 -205 81 -250 174
-13 26 -25 78 -30 125 -11 110 -17 134 -51 202 -56 110 -171 198 -296 225 -77
16 -100 14 -127 -14z"/>
<path d="M1583 1710 c-50 -10 -92 -31 -155 -77 -40 -29 -48 -40 -48 -67 0 -36
25 -66 56 -66 11 0 36 12 55 26 54 42 110 64 162 64 83 0 126 66 71 109 -28
22 -67 25 -141 11z"/>
<path d="M1145 1050 c-31 -34 -115 -70 -165 -70 -61 0 -90 -21 -90 -65 0 -26
6 -39 26 -52 23 -14 36 -15 99 -6 40 6 94 21 120 33 60 29 125 91 125 118 0
53 -79 82 -115 42z"/>
</g>
</svg>
