<svg xmlns="http://www.w3.org/2000/svg" version="1.1" x="0px" y="0px" width="48px" height="48px" viewBox="0 0 48 48" xml:space="preserve" class="c-logo--svg">
  <title>David Cazalis</title>
  <g class="c-logo__dc">
  	<path fill="currentColor" class="c-logo__path" d="M33,31.6c-4,0-7.3-3.3-7.3-7.3c0-5.5-4.5-10-10-10c-0.7,0-1.4,0.6-1.4,1.4s0.6,1.4,1.4,1.4
  		c4,0,7.3,3.3,7.3,7.3c0,5.5,4.5,10,10,10c0.7,0,1.4-0.6,1.4-1.4C34.4,32.3,33.7,31.6,33,31.6z"/>
  	<path fill="currentColor" class="c-logo__path" d="M20.6,29.8c-1.4,1.2-2.2,1.9-4.9,1.9c-0.7,0-1.4,0.6-1.3,1.4c0,0.7,0.6,1.3,1.4,1.3
  		c0,0,0,0,0,0c3.4,0,4.8-1,6.6-2.5c0.6-0.5,0.6-1.3,0.2-1.9C22,29.4,21.2,29.3,20.6,29.8z"/>
  	<path fill="currentColor" class="c-logo__path" d="M33,14.3c-3.4,0-4.8,1-6.6,2.5c-0.6,0.5-0.6,1.3-0.2,1.9c0.3,0.3,0.6,0.5,1,0.5
  		c0.3,0,0.6-0.1,0.9-0.3c1.5-1.3,2.3-1.9,4.9-1.9c0.7,0,1.4-0.6,1.4-1.4S33.7,14.3,33,14.3z"/>
  </g>
  <circle class="c-logo__circle c-logo__path" cx="24" cy="24" r="22.5" stroke="currentColor" stroke-width="3" fill="none" />
</svg>
