<?xml version="1.0" encoding="utf-8"?>
<!-- Generator: Adobe Illustrator 19.0.0, SVG Export Plug-In . SVG Version: 6.00 Build 0)  -->
<!DOCTYPE svg PUBLIC "-//W3C//DTD SVG 1.1//EN" "http://www.w3.org/Graphics/SVG/1.1/DTD/svg11.dtd">
<svg version="1.1" id="Calque_1" xmlns:sketch="http://www.bohemiancoding.com/sketch/ns"
	 xmlns="http://www.w3.org/2000/svg" xmlns:xlink="http://www.w3.org/1999/xlink" x="0px" y="0px" width="200px" height="200px"
	 viewBox="-79 0.5 200 200" style="enable-background:new -79 0.5 200 200;" xml:space="preserve">
<g>
	<title>Euromaster</title>
	<desc>Created with Sketch.</desc>
	<g id="Desktop-HD" transform="translate(-347.000000, -1359.000000)" sketch:type="MSArtboardGroup">
		<path id="Fill-2" sketch:type="MSShapeGroup" d="M284.9,1508.1h11.5l0.3,4.3h-7v3.6h6.2v4.3h-6.2v4h7l-0.6,4.4h-11.2V1508.1"/>
		<path id="Fill-3" sketch:type="MSShapeGroup" d="M314.5,1508.1v12c0,6-2.5,9-7.3,9c-4.8,0-7.3-3-7.3-9v-12h4.4v12.2
			c0,2.7,1,4,2.9,4c2,0,2.9-1.3,2.9-4v-12.2H314.5"/>
		<path id="Fill-4" sketch:type="MSShapeGroup" d="M325.2,1507.5c3.1,0.6,5.1,2.2,5.9,4.4c0.9,2.3,0.9,4.2,0.1,5.8
			c-0.6,1.4-1.6,2.4-2.9,2.9l4.8,7.2l-4.9,1.7l-5.6-9.2h-0.1v8.4h-4.8v-20.6C320.3,1507.3,322.7,1507.2,325.2,1507.5L325.2,1507.5z
			 M322.5,1519.6c1.1,0.1,2.1-0.2,3-1c0.8-0.9,1.3-1.9,1.4-3.1c0-1.3-0.7-2.3-1.8-2.9c-1.2-0.5-2-0.5-2.6-0.1V1519.6L322.5,1519.6z"
			/>
		<path id="Fill-5" sketch:type="MSShapeGroup" d="M335.7,1510.7c1.5-2.1,3.5-3.2,6.1-3.2c2.5,0,4.6,1.1,6,3.2
			c1.4,2.1,2.1,4.7,2.1,7.7c0,3.1-0.7,5.6-2.1,7.7c-1.4,2.1-3.5,3.2-6,3.2c-2.6,0-4.6-1.1-6.1-3.2c-1.4-2.1-2.2-4.6-2.2-7.7
			C333.5,1515.5,334.3,1512.8,335.7,1510.7L335.7,1510.7z M338,1518.5c0,1.8,0.3,3.1,0.8,4.3c0.8,1.3,1.7,1.9,3,1.9
			c1.2,0,2.2-0.6,3-1.9c0.6-1.2,1-2.5,1-4.3s-0.3-3.1-1-4.2c-0.8-1.4-1.8-2-3-2c-1.3,0-2.3,0.6-3,2
			C338.3,1515.3,338,1516.7,338,1518.5L338,1518.5z"/>
		<path id="Fill-6" sketch:type="MSShapeGroup" d="M383.9,1508.1l7,20.6h-5.1l-0.8-2.5h-7.3l-0.8,2.5H372l7-20.6H383.9L383.9,1508.1
			z M378.9,1522h4.8l-2.3-8.2L378.9,1522L378.9,1522z"/>
		<path id="Fill-7" sketch:type="MSShapeGroup" d="M419.2,1508l-0.5,4.3h-3.8v16.5H410v-16.5h-4.8l0.6-4.3H419.2"/>
		<path id="Fill-8" sketch:type="MSShapeGroup" d="M442.8,1507.5c3.1,0.6,5,2.2,5.9,4.4c0.8,2.3,0.8,4.2,0,5.8
			c-0.6,1.4-1.6,2.4-2.7,2.9l4.8,7.2l-4.9,1.7l-5.7-9.2v8.4h-4.9v-20.6C437.7,1507.3,440.1,1507.2,442.8,1507.5L442.8,1507.5z
			 M440.1,1512.6v7c1.1,0.1,2.1-0.2,2.9-1c1-0.9,1.4-1.9,1.4-3.1c0-1.3-0.6-2.3-1.8-2.9C441.5,1512.1,440.6,1512.1,440.1,1512.6
			L440.1,1512.6z"/>
		<path id="Fill-9" sketch:type="MSShapeGroup" d="M425.9,1516.1h6.2v4.3h-6.2v4h7l-0.6,4.4h-11.2v-20.6h11.5l0.3,4.3h-7V1516.1"/>
		<path id="Fill-10" sketch:type="MSShapeGroup" d="M449,1508.5h-0.4v-0.2h1.1v0.2h-0.5v1.3H449V1508.5"/>
		<path id="Fill-11" sketch:type="MSShapeGroup" d="M451.1,1508.3v1.5h-0.2v-1.2l-0.4,1.2h-0.1l-0.5-1.2v1.2h-0.1v-1.5h0.3l0.4,1.2
			l0.4-1.2H451.1"/>
		<path id="Fill-26" sketch:type="MSShapeGroup" d="M397.1,1520.6c1.4,0.8,2.1,1.6,2.1,2.3c-0.1,1.2-0.7,1.7-1.8,1.7
			c-1,0-2.3-0.6-3.6-2.1l-2.7,3.8c1.8,1.8,3.8,2.7,6.1,2.7c2.1,0,3.6-0.5,4.8-1.7c1.4-1.2,2.1-2.9,2.1-5c0-1.6-0.6-2.9-1.8-4.1
			c-0.8-0.8-2.1-1.6-4.1-2.6c-1.4-0.8-2.1-1.4-2.1-2.2c0-1.2,0.5-1.7,1.6-1.7c1,0,2.3,0.6,3.6,2.1l2.7-3.8c-1.8-1.8-3.8-2.7-6-2.7
			c-2,0-3.6,0.5-4.9,1.6c-1.4,1.2-2.1,2.9-2.1,5c0,1.7,0.7,3.2,2.1,4.4C393.7,1518.8,395.1,1519.6,397.1,1520.6"/>
		<path id="Fill-27" sketch:type="MSShapeGroup" d="M352.8,1508l-0.8,20.8h4.8l0.3-10.8l4.2,8.3l4.2-8.3l0.5,10.8h4.6l-0.8-20.8
			h-4.4l-4.2,7.7l-4.2-7.7H352.8"/>
		<path d="M366.8,1389.5h-1.1h-48.3v49.1v0.3v52.3h101.7v-101.7H366.8z M351.1,1394.5l7.2-0.1l-5.3,10h-7.2L351.1,1394.5z
			 M362.4,1410.9l-6.8,3l-9-6.5l6.8-3L362.4,1410.9z M338.6,1400.8l6.8-2l-2.1,10.8l0,0l10.8,3.5l-5.5,5l-10.6-3.5l5.2-5l-6.8,2.3
			L338.6,1400.8z M346.8,1418l-3.6,6.5l-11.3-0.3l3.6-6.2H346.8z M341.2,1424.8l-1.2,7.3l-10.9,3.5l1.5-7L341.2,1424.8z M334.5,1407
			l0.8,11.3l-6.4,3.8l-0.4-11.1L334.5,1407z M325.9,1418.3l4.4,10.6l-4.5,5.8l-4.4-10.6L325.9,1418.3z M365,1488.8
			c-6-0.3-11.9-1.6-17.6-4.1c-5.3-2.6-10.1-5.7-14.4-10.1c-4.2-4.2-7.9-9.1-10.1-14.4c-2.5-5.7-4-11.5-4.2-17.6h19.6
			c0.5,7,3.3,13,8.6,18.3c5,5.1,11.1,7.9,18.1,8.3V1488.8z M411.3,1460.2c-2.5,5.3-5.7,10.1-10.1,14.4c-4.2,4.4-9,7.5-14.4,10.1
			c-5.7,2.5-11.5,3.8-17.5,4.1v-19.6c6.9-0.4,13-3.1,18.1-8.3c5.3-5.3,8-11.3,8.5-18.3h19.6C415.4,1448.9,413.9,1454.7,411.3,1460.2
			z M396.2,1438.3c-0.5-7.2-3.2-13.3-8.5-18.3c-5.1-5.3-11.2-8.1-18.1-8.3v-19.6c6,0.1,11.8,1.5,17.5,3.9
			c5.3,2.6,10.1,5.9,14.4,10.2c4.4,4.2,7.9,9,10.1,14.4c2.6,5.7,4.1,11.6,4.2,17.8H396.2z"/>
	</g>
</g>
</svg>
