<?xml version="1.0" encoding="utf-8"?>
<!-- Generator: Adobe Illustrator 19.0.0, SVG Export Plug-In . SVG Version: 6.00 Build 0)  -->
<!DOCTYPE svg PUBLIC "-//W3C//DTD SVG 1.1//EN" "http://www.w3.org/Graphics/SVG/1.1/DTD/svg11.dtd">
<svg version="1.1" id="Calque_1" xmlns="http://www.w3.org/2000/svg" xmlns:xlink="http://www.w3.org/1999/xlink" x="0px" y="0px"
	 width="200px" height="200px" viewBox="0 0 200 200" style="enable-background:new 0 0 200 200;" xml:space="preserve">
<g id="XMLID_10_">
	<g>
		<path d="M125.8,66.1H74.2c-3.2,0-5.8,2.6-5.8,5.7v5.9h8.3v-3.9c0-2.4,1.9-4.2,4.2-4.2H119c2.4,0,4.2,1.9,4.2,4.2v3.9h8.3v-5.9
			C131.6,68.7,128.9,66.1,125.8,66.1z M123.3,85c0,2.4-1.9,4.2-4.2,4.2H81c-2.4,0-4.2-1.9-4.2-4.2v-3.9h-8.4V87
			c0,3.1,2.6,5.7,5.8,5.7h51.6c3.1,0,5.8-2.6,5.8-5.7v-5.9h-8.3C123.3,81.1,123.3,85,123.3,85z M106.3,79.4c0-3.4-2.9-6.3-6.3-6.3
			c-3.4,0-6.3,2.8-6.3,6.3c0,3.4,2.9,6.3,6.3,6.3C103.4,85.7,106.3,82.8,106.3,79.4z"/>
	</g>
	<g id="XMLID_1_">
		<path id="XMLID_40_" d="M38.6,115c-1-0.6-2.2-0.9-3.5-0.9c-1.3,0-2.5,0.3-3.6,0.9c-1.1,0.6-2.1,1.4-2.8,2.6
			c-0.6-1.1-1.4-2-2.3-2.6c-1-0.6-2.1-0.9-3.2-0.9c-1.2,0-2.3,0.2-3.2,0.7c-1,0.4-1.9,1.1-2.8,2v-2.2h-4.7v18.8h4.7V125
			c0-1.8,0.2-3.1,0.5-3.9c0.3-0.9,0.8-1.5,1.5-2c0.7-0.5,1.4-0.7,2.2-0.7c0.7,0,1.3,0.2,1.8,0.6s0.9,0.9,1.1,1.7
			c0.3,0.8,0.4,2,0.4,3.6v9.1h4.8V125c0-1.8,0.2-3.1,0.5-3.9s0.8-1.5,1.5-1.9c0.7-0.5,1.4-0.7,2.2-0.7c1.1,0,1.9,0.4,2.4,1.2
			c0.5,0.8,0.8,2.2,0.8,4.3v9.5h4.8v-11.2c0-2.3-0.2-3.9-0.7-4.9C40.3,116.5,39.5,115.7,38.6,115z"/>
		<path id="XMLID_6_" d="M63.6,118.9c-1-1.4-2.2-2.7-3.7-3.5c-1.6-0.9-3.2-1.4-5-1.4c-2.5,0-4.6,0.9-6.6,2.6c-2.2,2-3.2,4.4-3.2,7.4
			c0,2.8,1,5.1,2.9,7c2,2,4.2,2.9,7,2.9c1.9,0,3.5-0.4,5-1.3c1.6-0.9,2.8-2.1,3.6-3.6c0.9-1.6,1.4-3.2,1.4-5
			C64.9,122.1,64.5,120.4,63.6,118.9z M58.6,128c-1,1-2.3,1.6-3.7,1.6c-1.5,0-2.8-0.5-3.6-1.5c-1-1-1.5-2.4-1.5-3.9
			c0-1.6,0.5-2.9,1.5-3.9c1-1,2.2-1.6,3.6-1.6c1.5,0,2.8,0.5,3.7,1.5c1,1,1.5,2.4,1.5,3.9S59.6,126.9,58.6,128z"/>
		<path id="XMLID_37_" d="M79.1,114.1c-0.9,0-1.8,0.2-2.7,0.5c-0.9,0.4-1.9,1-3,1.9v-2h-4.7v18.8h4.7v-7.6c0-2,0.1-3.2,0.2-3.8
			c0.3-1.1,0.8-2,1.5-2.7c0.7-0.6,1.5-1,2.5-1c0.8,0,1.4,0.2,1.9,0.6c0.5,0.4,0.9,1,1.1,1.7c0.2,0.8,0.3,2.3,0.3,4.4v8.3h4.7V121
			c0-2.2-0.6-3.8-1.7-4.9C82.6,114.8,81,114.1,79.1,114.1z"/>
		<path id="XMLID_9_" d="M107.1,116.9c-1.7-1.9-3.8-2.8-6.3-2.8c-1.2,0-2.1,0.2-3.2,0.7c-1,0.4-2.7,1.1-2.7,2V108h-6v25h6v-1.6
			c0,0.9,1.8,1.5,2.7,1.9c1,0.4,1.9,0.6,3,0.6c2.5,0,4.5-1,6.4-2.9c1.8-1.9,2.6-4.2,2.6-7C109.7,121.1,108.8,118.7,107.1,116.9z
			 M103.5,128c-1,1.1-2.2,1.6-3.6,1.6c-1.5,0-2.8-0.5-3.7-1.6c-1-1-1.5-2.4-1.5-4c0-1.7,0.5-3,1.5-3.9c1-1,2.3-1.5,3.7-1.5
			c1.5,0,2.8,0.5,3.7,1.6c1,1.1,1.5,2.4,1.5,3.9S104.6,126.9,103.5,128z"/>
		<path id="XMLID_12_" d="M132,124.5c0-3.1-0.6-5.6-2.5-7.5c-1.8-2-4-3-7.1-3c-2.9,0-5.1,1-6.9,2.9c-1.9,1.9-2.7,4.3-2.7,7.2
			c0,2.8,0.9,5.1,2.8,7c1.9,1.9,4.3,2.8,7.3,2.8c1.9,0,3.5-0.3,4.9-1c1.4-0.7,2.6-1.7,3.5-3.1l-4-1.9c-1.3,1.3-2.8,1.9-4.6,1.9
			c-1.5,0-2.7-0.1-3.6-0.9c-1-0.8-1.6-1.9-1.8-2.9H132V124.5z M117.6,121c0.5-1,1.1-1.6,1.8-2.1c1-0.7,2.2-0.9,3.4-0.9
			c1.2,0,2.3,0,3.2,0.7c0.9,0.7,1.6,1.3,1.9,2.3H117.6z"/>
		<path id="XMLID_32_" d="M146.9,114.1c-0.9,0-1.8,0.2-2.7,0.5c-0.9,0.4-1.9,1-3,1.9v-2h-4.7v18.8h4.7v-7.6c0-2,0.1-3.2,0.2-3.8
			c0.3-1.1,0.8-2,1.5-2.7c0.7-0.6,1.5-1,2.5-1c0.8,0,1.4,0.2,1.9,0.6c0.5,0.4,0.9,1,1.1,1.7c0.2,0.8,0.3,2.3,0.3,4.4v8.3h4.7V121
			c0-2.2-0.6-3.8-1.7-4.9C150.3,114.8,148.7,114.1,146.9,114.1z"/>
		<polygon id="XMLID_31_" points="163.2,107.6 158.5,107.6 158.5,114.5 156,114.5 156,118.5 158.5,118.5 158.5,133.3 163.2,133.3 
			163.2,118.6 166.1,118.6 166.1,114.6 163.2,114.6 		"/>
		<path id="XMLID_15_" d="M186.2,119c-0.9-1.5-2.1-2.8-3.6-3.6c-1.6-0.9-3.2-1.4-5-1.4c-2.5,0-4.6,0.9-6.6,2.6
			c-2.2,2-3.2,4.4-3.2,7.4c0,2.8,1,5.1,2.9,7c2,2,4.2,2.9,7,2.9c1.9,0,3.5-0.4,5-1.3c1.6-0.9,2.8-2.1,3.6-3.6c0.9-1.6,1.4-3.2,1.4-5
			C187.5,122.2,187.1,120.6,186.2,119z M181.2,128c-1,1-2.3,1.6-3.7,1.6c-1.5,0-2.8-0.5-3.6-1.5c-1-1-1.5-2.4-1.5-3.9
			c0-1.6,0.5-2.9,1.5-3.9c1-1,2.2-1.6,3.6-1.6c1.5,0,2.8,0.5,3.7,1.5c1,1,1.5,2.4,1.5,3.9S182.2,126.9,181.2,128z"/>
	</g>
</g>
</svg>
