<?xml version="1.0" encoding="utf-8"?>
<!-- Generator: Adobe Illustrator 19.0.0, SVG Export Plug-In . SVG Version: 6.00 Build 0)  -->
<!DOCTYPE svg PUBLIC "-//W3C//DTD SVG 1.1//EN" "http://www.w3.org/Graphics/SVG/1.1/DTD/svg11.dtd">
<svg version="1.1" id="Calque_1" xmlns:sketch="http://www.bohemiancoding.com/sketch/ns"
	 xmlns="http://www.w3.org/2000/svg" xmlns:xlink="http://www.w3.org/1999/xlink" x="0px" y="0px" width="200px" height="200px"
	 viewBox="-79 0.5 200 200" style="enable-background:new -79 0.5 200 200;" xml:space="preserve">
<g>
	<polyline class="st0" points="42.8,90.3 21,57 -0.8,90.3 	"/>
	<g>
		<path class="st0" d="M-56.8,104h20.9v4.5h-18.6v6.3h17.9v3.8h-17.9v8.6h-4.7v-21C-59.1,104.9-58.2,104-56.8,104z M-33.4,127.3h4.7
			V104h-4.7V127.3z M69.5,127.3h4.7V104h-4.7V127.3z M75.9,104v4.5h10.3v18.8h4.7v-18.8h10.3V104H75.9z M66.3,108.2
			c0.6,1.5,0.9,4,0.9,7.4c0,3.4-0.3,5.9-0.9,7.5c-0.7,1.9-2.2,3.1-4.3,3.7c-1.6,0.4-4.3,0.6-8.3,0.6h-3.1c-4,0-6.7-0.2-8.3-0.6
			c-2.1-0.6-3.5-1.8-4.3-3.7c-0.6-1.5-0.9-4-0.9-7.5c0-3.4,0.3-5.9,0.9-7.4c0.7-1.9,2.2-3.1,4.3-3.7c1.6-0.4,4.3-0.6,8.3-0.6h3.1
			c4,0,6.7,0.2,8.3,0.6C64.2,105.1,65.6,106.3,66.3,108.2z M62.6,115.6c0-3.9-0.3-5.3-0.5-5.8c-0.1-0.2-0.4-0.9-1.9-1.2
			c-1.5-0.3-3.7-0.4-6.6-0.4h-2.8c-2.9,0-5.1,0.1-6.6,0.4c-1.5,0.3-1.8,1-1.9,1.2c-0.2,0.5-0.5,1.8-0.5,5.8c0,3.9,0.3,5.3,0.5,5.8
			c0.1,0.2,0.4,0.9,1.9,1.2c1.5,0.3,3.7,0.4,6.6,0.4h2.8c2.9,0,5.1-0.1,6.6-0.4c1.5-0.3,1.8-1,1.9-1.2
			C62.2,120.9,62.6,119.6,62.6,115.6z M3.6,108.3c0.7,1.6,1,4,1,7.4c0,3.4-0.3,5.7-1,7.3c-0.9,1.9-2.5,3.3-4.7,3.9
			c-1.7,0.4-4.6,0.5-9.2,0.5l-12.6,0h0c-1.4,0-2.3-0.9-2.3-2.2v-18.8c0-1.4,0.9-2.2,2.3-2.2l12.6,0c4.6,0,7.5,0,9.2,0.4
			C1.1,105,2.8,106.4,3.6,108.3z M0,115.7c0-3.9-0.4-5.1-0.6-5.5c-0.5-0.8-1.4-1.3-2.4-1.5c-1.3-0.2-3.1-0.2-5.4-0.2
			c-0.6,0-12.1,0-12.1,0v14.3l13.5,0c1.7,0,3,0,4-0.2c1-0.2,1.9-0.7,2.4-1.5C-0.4,120.7,0,119.5,0,115.7z M34.9,112.5
			c0,0.9,0,2.9-1.3,4.5c1,1.5,1,3.2,1,4l0,6.3h-4.7l0-5.8c0-1.1-0.1-1.8-0.5-2.2c-0.6-0.5-1.7-0.6-2.9-0.6h-15v8.6H6.8v-21
			c0-1.4,0.9-2.2,2.3-2.2h13.8c4.8,0,8,0,10.1,2.1c1.7,1.7,1.9,4.2,1.9,5.9L34.9,112.5z M30.4,112.1c0-1.4-0.1-2.3-0.6-2.8
			c-0.9-0.9-2.9-0.8-6.9-0.8H11.4v6.3H27v0c1.2,0,2.3,0,2.9-0.6C30.3,113.9,30.4,113.2,30.4,112.1z"/>
		<g>
			<path class="st0" d="M-59.2,136.5h0.6v5.3h3.7v0.6h-4.3V136.5z"/>
			<path class="st0" d="M-49.6,141c-0.2,0.8-0.9,1.5-2.3,1.5c-1.8,0-2.3-1.2-2.3-2.3c0-1.2,0.7-2.3,2.3-2.3c1.1,0,2.4,0.5,2.4,2.4
				h-4.1c0,0.9,0.6,1.6,1.7,1.6c1,0,1.5-0.3,1.7-1H-49.6z M-50.1,139.9c-0.2-1.1-0.9-1.5-1.8-1.5c-0.8,0-1.6,0.4-1.8,1.5H-50.1z"/>
			<path class="st0" d="M-41.7,140.8c-0.1,0.6-0.6,1.7-2.2,1.7c-1.6,0-2.4-0.9-2.4-2.3c0-1.3,0.8-2.3,2.4-2.3c1.5,0,2,0.9,2.1,1.5
				h-0.6c-0.2-0.7-0.8-1-1.5-1c-1.2,0-1.8,0.8-1.8,1.8c0,1.1,0.6,1.8,1.8,1.8c0.9,0,1.4-0.5,1.6-1.2H-41.7z"/>
			<path class="st0" d="M-36.3,141c-0.2,0.8-0.9,1.5-2.3,1.5c-1.8,0-2.3-1.2-2.3-2.3c0-1.2,0.7-2.3,2.3-2.3c1.1,0,2.4,0.5,2.4,2.4
				h-4.1c0,0.9,0.6,1.6,1.7,1.6c1,0,1.5-0.3,1.7-1H-36.3z M-36.9,139.9c-0.2-1.1-0.9-1.5-1.8-1.5c-0.8,0-1.6,0.4-1.8,1.5H-36.9z"/>
			<path class="st0" d="M-31.6,139.6c0-0.8-0.5-1.1-1.3-1.1c-1.2,0-1.7,0.6-1.7,1.6v2.3h-0.6v-4.3h0.6v0.8h0c0.2-0.5,0.8-1,1.8-1
				c1.4,0,1.9,0.7,1.9,1.8v2.7h-0.6V139.6z"/>
			<path class="st0" d="M-29.5,136.7h0.6v1.4h1.2v0.5h-1.2v2.8c0,0.4,0.1,0.5,0.6,0.5c0.3,0,0.5,0,0.6,0v0.5c-0.2,0-0.5,0-0.7,0
				c-0.9,0-1.2-0.4-1.2-1.1v-2.8h-0.9v-0.5h0.9V136.7z"/>
			<path class="st0" d="M-26.8,138.1h0.6v1h0c0.2-0.5,0.6-1.1,1.6-1.1c0.2,0,0.3,0,0.4,0v0.6c-0.2,0-0.4,0-0.6,0
				c-0.7,0-1.5,0.4-1.5,1.6v2.2h-0.6V138.1z"/>
			<path class="st0" d="M-19,141c-0.2,0.8-0.9,1.5-2.3,1.5c-1.8,0-2.3-1.2-2.3-2.3c0-1.2,0.7-2.3,2.3-2.3c1.1,0,2.4,0.5,2.4,2.4
				h-4.1c0,0.9,0.6,1.6,1.7,1.6c1,0,1.5-0.3,1.7-1H-19z M-19.5,139.9c-0.2-1.1-0.9-1.5-1.8-1.5c-0.8,0-1.6,0.4-1.8,1.5H-19.5z"/>
			<path class="st0" d="M-11.5,141.5L-11.5,141.5c-0.2,0.4-0.7,1-1.8,1c-1.8,0-2.3-1.2-2.3-2.3c0-1.2,0.7-2.3,2.3-2.3
				c0.8,0,1.5,0.4,1.7,1h0v-2.5h0.6v5.9h-0.6V141.5z M-13.3,138.5c-1,0-1.7,0.7-1.7,1.8c0,0.9,0.5,1.8,1.7,1.8c1,0,1.8-0.6,1.8-1.8
				C-11.5,139.3-12,138.5-13.3,138.5z"/>
			<path class="st0" d="M-5.3,141c-0.2,0.8-0.9,1.5-2.3,1.5c-1.8,0-2.3-1.2-2.3-2.3c0-1.2,0.7-2.3,2.3-2.3c1.1,0,2.4,0.5,2.4,2.4
				h-4.1c0,0.9,0.6,1.6,1.7,1.6c1,0,1.5-0.3,1.7-1H-5.3z M-5.8,139.9c-0.2-1.1-0.9-1.5-1.8-1.5c-0.8,0-1.6,0.4-1.8,1.5H-5.8z"/>
			<path class="st0" d="M1.8,138.1h0.7l-2,4.3h-0.7l-2-4.3h0.7l1.7,3.6L1.8,138.1z"/>
			<path class="st0" d="M3.1,139.4c0.1-0.9,0.6-1.5,2-1.5c1.4,0,2,0.4,2,1.3v2.2c0,0.4,0.1,0.5,0.3,0.5c0.1,0,0.2,0,0.3,0v0.4
				c-0.1,0-0.3,0.1-0.5,0.1c-0.6,0-0.7-0.4-0.7-0.8h0c-0.2,0.3-0.6,0.9-2,0.9c-0.7,0-1.7-0.3-1.7-1.3c0-1.2,1.2-1.3,2.1-1.3
				c1.3-0.1,1.5-0.1,1.5-0.6c0-0.6-0.4-0.8-1.4-0.8c-1,0-1.4,0.3-1.5,0.9H3.1z M6.5,140.1c-0.3,0.2-0.7,0.2-1.9,0.3
				c-0.7,0.1-1.1,0.3-1.1,0.8c0,0.7,0.6,0.9,1.2,0.9c0.8,0,1.8-0.4,1.8-1.3V140.1z"/>
			<path class="st0" d="M8.3,136.4h0.6v5.9H8.3V136.4z"/>
			<path class="st0" d="M12.3,138c1.6,0,2.4,1.1,2.4,2.3c0,1.2-0.8,2.3-2.4,2.3s-2.4-1.1-2.4-2.3C9.9,139,10.7,138,12.3,138z
				 M12.3,142c1.2,0,1.8-0.7,1.8-1.8c0-1-0.7-1.8-1.8-1.8c-1.2,0-1.8,0.7-1.8,1.8C10.5,141.3,11.2,142,12.3,142z"/>
			<path class="st0" d="M15.8,138.1h0.6v1h0c0.2-0.5,0.6-1.1,1.6-1.1c0.2,0,0.3,0,0.4,0v0.6c-0.2,0-0.4,0-0.6,0
				c-0.7,0-1.5,0.4-1.5,1.6v2.2h-0.6V138.1z"/>
			<path class="st0" d="M19,136.4h0.6v0.9H19V136.4z M19,138.1h0.6v4.3H19V138.1z"/>
			<path class="st0" d="M23.9,139.4c-0.2-0.7-0.6-0.9-1.5-0.9c-0.6,0-1.2,0.1-1.2,0.7c0,0.4,0.3,0.5,1.6,0.7
				c1.3,0.2,1.9,0.4,1.9,1.2c0,0.8-0.7,1.4-2,1.4c-1.4,0-2.2-0.4-2.2-1.5H21c0.1,0.7,0.5,1,1.6,1c0.8,0,1.4-0.2,1.4-0.8
				c0-0.4-0.3-0.6-1.6-0.8c-1.3-0.1-1.8-0.4-1.8-1.2c0-0.7,0.6-1.3,1.8-1.3c1.4,0,2,0.5,2,1.4H23.9z"/>
			<path class="st0" d="M25.5,139.4c0.1-0.9,0.6-1.5,2-1.5c1.4,0,2,0.4,2,1.3v2.2c0,0.4,0.1,0.5,0.3,0.5c0.1,0,0.2,0,0.3,0v0.4
				c-0.1,0-0.3,0.1-0.5,0.1c-0.6,0-0.7-0.4-0.7-0.8h0c-0.2,0.3-0.6,0.9-2,0.9c-0.7,0-1.7-0.3-1.7-1.3c0-1.2,1.2-1.3,2.1-1.3
				c1.3-0.1,1.5-0.1,1.5-0.6c0-0.6-0.4-0.8-1.4-0.8c-1,0-1.4,0.3-1.5,0.9H25.5z M29,140.1c-0.3,0.2-0.7,0.2-1.9,0.3
				c-0.7,0.1-1.1,0.3-1.1,0.8c0,0.7,0.6,0.9,1.2,0.9c0.8,0,1.8-0.4,1.8-1.3V140.1z"/>
			<path class="st0" d="M31.2,136.7h0.6v1.4H33v0.5h-1.2v2.8c0,0.4,0.1,0.5,0.6,0.5c0.3,0,0.5,0,0.6,0v0.5c-0.2,0-0.5,0-0.7,0
				c-0.9,0-1.2-0.4-1.2-1.1v-2.8h-0.9v-0.5h0.9V136.7z"/>
			<path class="st0" d="M33.9,136.4h0.6v0.9h-0.6V136.4z M33.9,138.1h0.6v4.3h-0.6V138.1z"/>
			<path class="st0" d="M37.9,138c1.6,0,2.4,1.1,2.4,2.3c0,1.2-0.8,2.3-2.4,2.3c-1.6,0-2.4-1.1-2.4-2.3C35.5,139,36.3,138,37.9,138z
				 M37.9,142c1.2,0,1.8-0.7,1.8-1.8c0-1-0.7-1.8-1.8-1.8c-1.2,0-1.8,0.7-1.8,1.8C36.1,141.3,36.8,142,37.9,142z"/>
			<path class="st0" d="M45,139.6c0-0.8-0.5-1.1-1.3-1.1c-1.2,0-1.7,0.6-1.7,1.6v2.3h-0.6v-4.3H42v0.8h0c0.2-0.5,0.8-1,1.8-1
				c1.4,0,1.9,0.7,1.9,1.8v2.7H45V139.6z"/>
			<path class="st0" d="M49.2,138.1h0.6v0.9h0c0.2-0.4,0.6-1,1.7-1c1.8,0,2.3,1.2,2.3,2.3c0,1.2-0.7,2.3-2.3,2.3
				c-0.8,0-1.5-0.4-1.7-1h0v2.5h-0.6V138.1z M51.6,142c1,0,1.7-0.7,1.7-1.8c0-0.9-0.5-1.8-1.7-1.8c-1,0-1.8,0.6-1.8,1.8
				C49.8,141.1,50.4,142,51.6,142z"/>
			<path class="st0" d="M54.9,139.4c0.1-0.9,0.6-1.5,2-1.5c1.4,0,2,0.4,2,1.3v2.2c0,0.4,0.1,0.5,0.3,0.5c0.1,0,0.2,0,0.3,0v0.4
				c-0.1,0-0.3,0.1-0.5,0.1c-0.6,0-0.7-0.4-0.7-0.8h0c-0.2,0.3-0.6,0.9-2,0.9c-0.7,0-1.7-0.3-1.7-1.3c0-1.2,1.2-1.3,2.1-1.3
				c1.3-0.1,1.5-0.1,1.5-0.6c0-0.6-0.4-0.8-1.4-0.8c-1,0-1.4,0.3-1.5,0.9H54.9z M58.4,140.1c-0.3,0.2-0.7,0.2-1.9,0.3
				c-0.7,0.1-1.1,0.3-1.1,0.8c0,0.7,0.6,0.9,1.2,0.9c0.8,0,1.8-0.4,1.8-1.3V140.1z"/>
			<path class="st0" d="M60.6,136.7h0.6v1.4h1.2v0.5h-1.2v2.8c0,0.4,0.1,0.5,0.6,0.5c0.3,0,0.5,0,0.6,0v0.5c-0.2,0-0.5,0-0.7,0
				c-0.9,0-1.2-0.4-1.2-1.1v-2.8h-0.9v-0.5h0.9V136.7z"/>
			<path class="st0" d="M63.3,138.1h0.6v1h0c0.2-0.5,0.6-1.1,1.6-1.1c0.2,0,0.3,0,0.4,0v0.6c-0.2,0-0.4,0-0.6,0
				c-0.7,0-1.5,0.4-1.5,1.6v2.2h-0.6V138.1z"/>
			<path class="st0" d="M66.6,136.4h0.6v0.9h-0.6V136.4z M66.6,138.1h0.6v4.3h-0.6V138.1z"/>
			<path class="st0" d="M75,139.7c0-0.8-0.4-1.2-1.3-1.2c-0.9,0-1.5,0.5-1.5,1.4v2.5h-0.6v-2.9c0-0.5-0.4-1-1.2-1
				c-0.9,0-1.5,0.5-1.5,1.5v2.4h-0.6v-4.3h0.6v0.8h0c0.3-0.5,0.7-0.9,1.7-0.9c1,0,1.4,0.5,1.5,0.9c0.2-0.4,0.8-0.9,1.7-0.9
				c1.2,0,1.8,0.6,1.8,1.5v2.9H75V139.7z"/>
			<path class="st0" d="M79,138c1.6,0,2.4,1.1,2.4,2.3c0,1.2-0.8,2.3-2.4,2.3c-1.6,0-2.4-1.1-2.4-2.3C76.6,139,77.4,138,79,138z
				 M79,142c1.2,0,1.8-0.7,1.8-1.8c0-1-0.7-1.8-1.8-1.8c-1.2,0-1.8,0.7-1.8,1.8C77.2,141.3,77.9,142,79,142z"/>
			<path class="st0" d="M86.1,139.6c0-0.8-0.5-1.1-1.3-1.1c-1.2,0-1.7,0.6-1.7,1.6v2.3h-0.6v-4.3h0.6v0.8h0c0.2-0.5,0.8-1,1.8-1
				c1.4,0,1.9,0.7,1.9,1.8v2.7h-0.6V139.6z"/>
			<path class="st0" d="M87.9,136.4h0.6v0.9h-0.6V136.4z M87.9,138.1h0.6v4.3h-0.6V138.1z"/>
			<path class="st0" d="M89.6,139.4c0.1-0.9,0.6-1.5,2-1.5c1.4,0,2,0.4,2,1.3v2.2c0,0.4,0.1,0.5,0.3,0.5c0.1,0,0.2,0,0.3,0v0.4
				c-0.1,0-0.3,0.1-0.5,0.1c-0.6,0-0.7-0.4-0.7-0.8h0c-0.2,0.3-0.6,0.9-2,0.9c-0.7,0-1.7-0.3-1.7-1.3c0-1.2,1.2-1.3,2.1-1.3
				c1.3-0.1,1.5-0.1,1.5-0.6c0-0.6-0.4-0.8-1.4-0.8c-1,0-1.4,0.3-1.5,0.9H89.6z M93,140.1c-0.3,0.2-0.7,0.2-1.9,0.3
				c-0.7,0.1-1.1,0.3-1.1,0.8c0,0.7,0.6,0.9,1.2,0.9c0.8,0,1.8-0.4,1.8-1.3V140.1z"/>
			<path class="st0" d="M94.8,136.4h0.6v5.9h-0.6V136.4z"/>
			<path class="st0" d="M101.1,141c-0.2,0.8-0.9,1.5-2.3,1.5c-1.8,0-2.3-1.2-2.3-2.3c0-1.2,0.7-2.3,2.3-2.3c1.1,0,2.4,0.5,2.4,2.4
				H97c0,0.9,0.6,1.6,1.7,1.6c1,0,1.5-0.3,1.7-1H101.1z M100.6,139.9c-0.2-1.1-0.9-1.5-1.8-1.5c-0.8,0-1.6,0.4-1.8,1.5H100.6z"/>
		</g>
	</g>
</g>
</svg>
