<?xml version="1.0" encoding="utf-8"?>
<!-- Generator: Adobe Illustrator 19.0.0, SVG Export Plug-In . SVG Version: 6.00 Build 0)  -->
<!DOCTYPE svg PUBLIC "-//W3C//DTD SVG 1.1//EN" "http://www.w3.org/Graphics/SVG/1.1/DTD/svg11.dtd">
<svg version="1.1" id="Calque_1" xmlns="http://www.w3.org/2000/svg" xmlns:xlink="http://www.w3.org/1999/xlink" x="0px" y="0px"
	 width="200px" height="200px" viewBox="0 0 200 200" style="enable-background:new 0 0 200 200;" xml:space="preserve">
<g>
	<path d="M67.4,79c0.1,3.8,2,7.3,5.3,9.2l0.1,0l0.1,0l24.5,14.2l0.1,0.1l0.1,0.1c1.6,0.8,3.4,1.3,5.2,1.3c1.9,0,3.7-0.5,5.3-1.3l0,0
		l0,0l0,0v0c0.3-0.2,2.6-1.5,23.9-13.8c1.7-0.9,3.2-2.2,4.3-3.9c1.1-1.8,1.8-3.8,1.8-5.9l0,0v0c0,0,0-27.8,0-27.9
		c0-2.1-0.6-4.2-1.7-6c-1.1-1.7-2.5-3-4.3-3.9l-23.7-13.8l-0.3-0.2l-0.4-0.2c-1-0.4-3-1.1-4.9-1.1c-2.1,0-4.2,0.6-6,1.8L73,41.3
		c-3.4,2-5.6,5.7-5.6,9.6v27.9C67.4,78.9,67.4,79,67.4,79L67.4,79z M105.2,97.2L105.2,97.2c-0.7,0.4-1.6,0.6-2.4,0.6
		c-0.8,0-1.6-0.2-2.3-0.6l-7.1-4.1v-22c4.7,10.2,9.3,20,9.3,20l0,0c1,2.2,2.6,3.9,4.5,4.8C105.9,96.7,105.2,97.1,105.2,97.2z
		 M116,38.9l13.2,7.6c1.6,0.8,2.8,2.5,2.8,4.4c0,0.2,0,27.9,0,27.9c0,1.8-1,3.5-2.6,4.3c-1.4,0.7-2.7,0.8-3.8,0.5
		c-1.9-0.6-3-2.5-3.4-3.3c-0.1-0.2-2.8-6-6.2-13.3V38.9z M100.1,32.8c0.8-0.5,1.7-0.9,2.8-0.9c0.9,0,2.5,0.7,2.5,0.7l6.8,4v22.2
		c-4.9-10.5-9.8-20.9-9.8-20.9c-0.8-1.7-2.2-3.2-4-4L100.1,32.8z M92.5,37.2L92.5,37.2c1-0.5,2.3-0.6,3.6-0.1
		c1.3,0.4,2.3,1.3,2.8,2.4l0,0c0.1,0.1,0.1,0.3,0.2,0.5l19.7,42l0,0c1,2.1,2.6,3.8,4.4,4.8c-2.8,1.6-6.2,3.6-9.3,5.4l0-0.1
		c-1.6,0.9-3,1.1-4.2,0.7c-1.9-0.6-3-2.5-3.4-3.3L93.4,62v-0.2h-0.1l-6-13c-0.5-1-0.7-1.5-0.9-1.8l0,0c-0.8-1.7-2.2-3.1-4-4
		L92.5,37.2z M73.6,50.9c0-1.8,1-3.4,2.5-4.3l0.5-0.3l0,0c1-0.5,2.3-0.6,3.5-0.2c1.3,0.4,2.3,1.3,2.8,2.4c0,0,3,6.4,6.6,14.2v28
		L76,83c-1.4-0.9-2.3-2.4-2.4-4.1l0-0.1c0,0,0,0,0,0C73.6,78.8,73.6,51.1,73.6,50.9z"/>
	<path id="XMLID_19_" d="M77.6,168.2c-0.6-0.5-1.6-1-2.8-1.3c-1.3-0.3-2.1-0.6-2.5-0.8c-0.4-0.3-0.6-0.6-0.6-1.1
		c0-0.5,0.2-0.9,0.6-1.1c0.4-0.2,0.9-0.4,1.5-0.4c0.6,0,1.2,0.1,1.8,0.3c0.6,0.2,1.1,0.5,1.5,0.8l1.1-1.6c-0.6-0.5-1.2-0.8-2-1.1
		c-0.8-0.3-1.5-0.4-2.3-0.4c-1.2,0-2.2,0.3-3.1,0.9c-0.8,0.6-1.2,1.5-1.2,2.6c0,1.1,0.4,2,1.1,2.5c0.4,0.3,0.8,0.5,1.2,0.7
		c0.5,0.2,1.2,0.4,2,0.6c0.9,0.2,1.5,0.5,1.9,0.7c0.4,0.3,0.6,0.6,0.6,1.1c0,0.5-0.2,0.9-0.6,1.1c-0.4,0.3-0.9,0.4-1.6,0.4
		c-1.3,0-2.6-0.5-3.9-1.6l-1.3,1.6c1.5,1.3,3.2,2,5.1,2c1.3,0,2.4-0.3,3.2-1c0.8-0.7,1.2-1.5,1.2-2.6
		C78.6,169.5,78.3,168.7,77.6,168.2z"/>
	<polygon id="XMLID_18_" points="80,163.7 83.7,163.7 83.7,174 85.8,174 85.8,163.7 89.5,163.7 89.5,161.8 80,161.8 	"/>
	<path id="XMLID_17_" d="M99.9,168.6c0,1.1-0.3,2-0.8,2.7c-0.6,0.7-1.3,1-2.3,1c-1,0-1.7-0.3-2.3-1c-0.6-0.7-0.8-1.5-0.8-2.7v-6.8
		h-2.1v6.9c0,1.8,0.5,3.1,1.5,4.1c1,1,2.2,1.4,3.7,1.4c1.5,0,2.8-0.5,3.7-1.4c1-1,1.5-2.3,1.5-4.1v-6.9h-2.1V168.6z"/>
	<path d="M114.4,163.4c-1.2-1.1-2.9-1.6-5.1-1.6h-4.2V174h4.1c2.4,0,4.1-0.6,5.3-1.7c1.1-1.1,1.7-2.6,1.7-4.5
		C116.2,166,115.6,164.5,114.4,163.4z M112.9,171c-0.8,0.7-1.9,1.1-3.4,1.1h-2.3v-8.4h2.1c3.2,0,4.8,1.4,4.8,4.2
		C114.1,169.3,113.7,170.3,112.9,171z"/>
	<rect id="XMLID_14_" x="118.9" y="161.8" width="2.1" height="12.2"/>
	<path d="M130,161.5c-1.8,0-3.4,0.6-4.6,1.8c-1.2,1.2-1.9,2.7-1.9,4.5c0,1.8,0.6,3.3,1.9,4.5c1.2,1.2,2.8,1.8,4.6,1.8
		c1.8,0,3.4-0.6,4.6-1.8c1.2-1.2,1.9-2.7,1.9-4.5c0-1.8-0.6-3.3-1.9-4.5C133.3,162.1,131.8,161.5,130,161.5z M133.1,171
		c-0.8,0.9-1.9,1.3-3.1,1.3c-1.2,0-2.2-0.4-3.1-1.3c-0.8-0.9-1.3-1.9-1.3-3.1c0-1.2,0.4-2.3,1.3-3.1c0.8-0.9,1.9-1.3,3.1-1.3
		c1.2,0,2.2,0.4,3.1,1.3c0.8,0.9,1.3,1.9,1.3,3.1C134.3,169.1,133.9,170.1,133.1,171z"/>
	<path id="XMLID_11_" d="M23.9,119.9c-2.6,0-4.9,1.1-7,3.2v-2.7H10v24.6h6.9v-13.7c0-1.9,0.5-3.4,1.5-4.4c1-1,2.2-1.5,3.6-1.5
		c2.8,0,4.2,1.9,4.2,5.7v13.9H33v-15c0-3-0.9-5.5-2.6-7.3C28.6,120.8,26.5,119.9,23.9,119.9z"/>
	<path d="M49.7,119.9c-3.7,0-6.8,1.2-9.3,3.7c-2.5,2.5-3.7,5.5-3.7,9s1.2,6.6,3.7,9c2.5,2.4,5.6,3.7,9.3,3.7c3.7,0,6.8-1.2,9.3-3.7
		c2.5-2.4,3.7-5.4,3.7-9s-1.2-6.6-3.7-9C56.5,121.1,53.4,119.9,49.7,119.9z M54.1,137.6c-1.1,1.3-2.6,1.9-4.4,1.9
		c-1.8,0-3.2-0.6-4.4-1.9c-1.1-1.3-1.7-2.9-1.7-4.9s0.6-3.7,1.7-4.9c1.1-1.3,2.6-1.9,4.4-1.9c1.8,0,3.2,0.6,4.4,1.9
		c1.1,1.3,1.7,2.9,1.7,4.9S55.2,136.3,54.1,137.6z"/>
	<path id="XMLID_8_" d="M69.9,143c1.6,1.6,3.6,2.3,6,2.3c2.4,0,4.6-1,6.7-2.9l-2.6-4.8c-0.9,1.2-2,1.7-3.2,1.7
		c-0.7,0-1.3-0.3-1.7-0.8c-0.5-0.5-0.7-1.3-0.7-2.2v-11h5.9v-4.9h-5.9V113h-6.9v7.4h-2.9v4.9h2.9v11.3
		C67.5,139.3,68.3,141.4,69.9,143z"/>
	<path d="M96.5,119.9c-3.7,0-6.8,1.2-9.3,3.7c-2.5,2.5-3.7,5.5-3.7,9s1.2,6.6,3.7,9c2.5,2.4,5.6,3.7,9.3,3.7c3.7,0,6.8-1.2,9.3-3.7
		c2.5-2.4,3.7-5.4,3.7-9s-1.2-6.6-3.7-9C103.3,121.1,100.2,119.9,96.5,119.9z M100.9,137.6c-1.1,1.3-2.6,1.9-4.4,1.9
		c-1.8,0-3.2-0.6-4.4-1.9c-1.1-1.3-1.7-2.9-1.7-4.9s0.6-3.7,1.7-4.9c1.1-1.3,2.6-1.9,4.4-1.9c1.8,0,3.2,0.6,4.4,1.9
		c1.1,1.3,1.7,2.9,1.7,4.9S102,136.3,100.9,137.6z"/>
	<path id="XMLID_5_" d="M127.7,126.4l0-6.5c-1.4,0-2.7,0.4-4,1.1c-1.3,0.7-2.4,1.6-3.3,2.6v-3.2h-6.9v24.6h6.9v-10.7
		c0-2.4,0.5-4.3,1.5-5.7c1-1.4,2.5-2.2,4.6-2.2H127.7z"/>
	<rect id="XMLID_4_" x="131.1" y="120.3" width="6.9" height="24.6"/>
	<path id="XMLID_3_" d="M134.5,110.3c-1.1,0-2.1,0.4-2.9,1.2c-0.8,0.8-1.2,1.7-1.2,2.9c0,1.1,0.4,2.1,1.2,2.9
		c0.8,0.8,1.7,1.2,2.9,1.2c1.1,0,2.1-0.4,2.9-1.2c0.8-0.8,1.2-1.7,1.2-2.9c0-1.1-0.4-2.1-1.2-2.9
		C136.6,110.7,135.7,110.3,134.5,110.3z"/>
	<path id="XMLID_2_" d="M159.2,133.6c0,1.9-0.5,3.3-1.5,4.3c-1,1-2.2,1.5-3.6,1.5c-2.8,0-4.2-1.9-4.2-5.7v-13.4h-6.9v14.9
		c0,3.3,0.9,5.8,2.7,7.5c1.8,1.7,4.1,2.5,6.8,2.5c2.7,0,4.9-1.2,6.6-3.6v3.2h6.9v-24.6h-6.9V133.6z"/>
	<path id="XMLID_1_" d="M187.4,132.1c-0.9-0.5-1.7-1-2.4-1.2c-0.7-0.3-1.8-0.6-3.3-1.1c-1.6-0.5-2.7-0.9-3.3-1.3
		c-0.7-0.4-1-0.9-1-1.5c0-1.2,1.1-1.7,3.2-1.7c2.1,0,4.2,0.7,6.4,2.2l2.6-4.6c-2.9-2-5.8-2.9-8.7-2.9c-2.9,0-5.3,0.7-7.1,2.2
		c-1.8,1.4-2.7,3.3-2.7,5.6c0,2.3,0.9,4,2.8,5.1c0.9,0.6,1.7,1,2.4,1.3c0.7,0.3,1.8,0.7,3.1,1.1c1.4,0.4,2.4,0.9,3.1,1.4
		c0.7,0.5,1.1,1,1.1,1.6c0,0.6-0.3,1-0.8,1.4c-0.5,0.4-1.2,0.5-2.1,0.5c-2.9,0-5.6-1-8.2-3l-3,4.3c1.6,1.3,3.4,2.2,5.4,2.9
		c2,0.7,3.9,1,5.7,1c2.7,0,5-0.7,6.8-2.2c1.8-1.5,2.7-3.4,2.7-5.8C190,134.9,189.1,133.1,187.4,132.1z"/>
</g>
</svg>
