<?xml version="1.0" encoding="utf-8"?>
<!-- Generator: Adobe Illustrator 19.0.0, SVG Export Plug-In . SVG Version: 6.00 Build 0)  -->
<!DOCTYPE svg PUBLIC "-//W3C//DTD SVG 1.1//EN" "http://www.w3.org/Graphics/SVG/1.1/DTD/svg11.dtd">
<svg version="1.1" id="Calque_1" xmlns="http://www.w3.org/2000/svg" xmlns:xlink="http://www.w3.org/1999/xlink" x="0px" y="0px"
	 width="200px" height="200px" viewBox="0 0 200 200" style="enable-background:new 0 0 200 200;" xml:space="preserve">
<g id="XMLID_46_">
	<g>
		<path d="M113.5,75.9c0,1.6,0,4.1,1.8,4.7c1.2,0.4,2.4,0.4,2.8,0.4c0.2,0,0.3,0,0.3,0.2c0,0.3-0.5,0.4-1,0.4c-1,0-5.7-0.1-7.4-0.3
			c-1-0.1-1.2-0.2-1.2-0.5c0-0.2,0.1-0.3,0.3-0.3c0.2,0,0.4-0.8,0.4-1.6l0.7-22.8h-0.1l-13.7,23c-1.2,2-1.4,2.4-1.8,2.4
			c-0.3,0-0.5-0.5-1.1-2.1c-0.9-2.2-3.7-9.8-3.9-10.3c-0.3-0.8-3.9-11.4-4.3-12.6h-0.2L81,77.2c-0.1,0.7-0.2,1.5-0.3,2.3
			c-0.1,0.7,0.3,1.2,1,1.4c0.7,0.2,1.4,0.2,1.7,0.2c0.2,0,0.3,0.1,0.3,0.2c0,0.3-0.4,0.3-1,0.3l-8.8,0c0-0.1,0.7-1.2,1-1.2
			c0.4,0,0.7,0,1.3-0.1c1.5-0.3,1.7-1.3,2.1-3l6.8-28.8c0.1-0.5,0.3-0.8,0.6-0.8c0.3,0,0.4,0.2,0.6,0.7l10.1,27.8l16.5-27.8
			c0.2-0.4,0.4-0.7,0.8-0.7c0.3,0,0.4,0.4,0.4,1.2L113.5,75.9z"/>
		<path d="M126.4,68.8c-0.5,4.2-1,7.7-1,9.6c0,1.3,0.1,2.3,1.4,2.4c0.6,0.1,1.6,0.2,2,0.2c0.3,0,0.3,0.1,0.3,0.3
			c0,0.2-0.3,0.4-0.8,0.4c-2.4,0-5.2-0.1-5.4-0.1c-0.2,0-3,0.1-4.4,0.1c-0.5,0-0.7-0.1-0.7-0.4c0-0.1,0.1-0.3,0.4-0.3
			c0.4,0,0.9-0.1,1.4-0.2c0.9-0.2,1.3-1.1,1.6-2.4c0.5-1.9,0.9-5.4,1.4-9.6l1-7.8c0.9-6.9,1-8.1,1.1-9.6c0.1-1.5-0.2-2.3-1.2-2.5
			c-0.5-0.1-1-0.2-1.3-0.2c-0.2,0-0.3-0.1-0.3-0.3c0-0.3,0.3-0.4,0.8-0.4c1.5,0,4.2,0.1,4.5,0.1c0.2,0,3-0.1,4.4-0.1
			c0.5,0,0.7,0.1,0.7,0.4c0,0.2-0.2,0.3-0.4,0.3c-0.3,0-0.6,0-1.1,0.1c-1.2,0.2-1.7,1-2,2.5c-0.3,1.4-0.4,2.7-1.3,9.6L126.4,68.8z"
			/>
		<path d="M133.3,81.1c-0.6-0.3-0.6-0.5-0.5-1.7c0.3-2.2,0.7-4,0.8-4.7c0.1-0.5,0.2-0.7,0.4-0.7c0.3,0,0.3,0.1,0.3,0.5
			c-0.1,0.4-0.1,1-0.1,1.6c0.3,3.3,3,4.5,6,4.5c4.3,0,6.7-3.1,7.1-5.9c0.4-3.1-0.7-4.8-4.1-8l-1.8-1.6c-4.2-3.9-4.9-6.6-4.6-9.6
			c0.6-4.7,4.5-8,10.2-8c1.7,0,3,0.2,4.1,0.4c0.8,0.2,1.2,0.2,1.5,0.2c0.4,0,0.4,0.1,0.4,0.3c0,0.2-0.4,1.7-0.8,4.7
			c-0.1,0.7-0.2,1-0.4,1c-0.3,0-0.3-0.2-0.3-0.6c0-0.5-0.1-1.7-0.3-2.2c-0.2-0.5-1.2-2.3-5.2-2.3c-3.1,0-5.7,1.9-6.1,5.1
			c-0.3,2.5,0.7,4,4.5,7.4l1.1,1c4.7,4.1,5.6,6.9,5.2,10.4c-0.2,1.8-1.4,5.2-4.7,7.3c-2.1,1.3-4.5,1.8-6.9,1.8
			C137,82.3,135,82,133.3,81.1z"/>
		<path d="M92.2,45.9c0,1.6,0,2.4,0.2,2.6c0.2,0.2,0.5,0.3,1.3,0.3c0.6,0,1.1,0,1.4-0.3c0.1-0.2,0.3-0.5,0.3-0.7
			c0-0.1,0-0.1,0.1-0.1c0.1,0,0.1,0,0.1,0.2c0,0.1-0.1,0.8-0.2,1.1c-0.1,0.3-0.1,0.3-0.7,0.3c-1.6,0-2.4-0.1-3-0.1
			c-0.1,0-0.8,0-1.1,0c-0.1,0-0.2,0-0.2-0.1c0,0,0-0.1,0.1-0.1c0.1,0,0.2,0,0.3,0c0.2,0,0.3-0.3,0.3-0.6c0.1-0.5,0.1-1.4,0.1-2.4v-2
			c0-1.7,0-2.1,0-2.4c0-0.4-0.1-0.6-0.5-0.6c-0.1,0-0.3,0-0.4,0c0,0-0.1,0-0.1-0.1c0-0.1,0.1-0.1,0.2-0.1c0.5,0,1.2,0,1.3,0
			c0.1,0,0.9,0,1.2,0c0.1,0,0.2,0,0.2,0.1c0,0,0,0.1-0.1,0.1c-0.1,0-0.2,0-0.4,0c-0.3,0.1-0.4,0.2-0.4,0.6c0,0.4,0,0.7,0,2.4V45.9z"
			/>
		<path d="M97.5,43.9c0-1.7,0-2.1,0-2.4c0-0.4-0.1-0.6-0.5-0.6c-0.1,0-0.3,0-0.4,0c0,0-0.1,0-0.1-0.1c0-0.1,0.1-0.1,0.2-0.1
			c0.5,0,1.2,0,1.3,0c0.1,0,2.3,0,2.6,0c0.2,0,0.4,0,0.5-0.1c0.1,0,0.1-0.1,0.2-0.1c0,0,0,0,0,0.1c0,0.1-0.1,0.2-0.1,0.5
			c0,0.1,0,0.6-0.1,0.7c0,0.1,0,0.1-0.1,0.1c-0.1,0-0.1-0.1-0.1-0.1c0-0.1,0-0.3-0.1-0.4c-0.1-0.2-0.2-0.3-0.8-0.4
			c-0.2,0-1.4,0-1.5,0c0,0-0.1,0-0.1,0.1v3.1c0,0.1,0,0.1,0.1,0.1c0.1,0,1.5,0,1.8,0c0.3,0,0.4,0,0.5-0.2c0.1-0.1,0.1-0.1,0.2-0.1
			c0,0,0.1,0,0.1,0.1c0,0.1-0.1,0.3-0.1,0.6c0,0.2,0,0.6,0,0.7c0,0.1,0,0.2-0.1,0.2c-0.1,0-0.1,0-0.1-0.1c0-0.1,0-0.2,0-0.4
			c0-0.2-0.1-0.3-0.6-0.4c-0.3,0-1.4-0.1-1.6-0.1c-0.1,0-0.1,0-0.1,0.1v1c0,0.4,0,1.7,0,1.9c0,0.8,0.2,0.9,1.3,0.9
			c0.3,0,0.8,0,1.1-0.1c0.3-0.1,0.4-0.3,0.5-0.8c0-0.1,0-0.2,0.1-0.2c0.1,0,0.1,0.1,0.1,0.2c0,0.1-0.1,0.8-0.1,1.1
			c-0.1,0.3-0.2,0.3-0.6,0.3c-1.7,0-2.4-0.1-2.8-0.1c0,0-0.2,0-0.4,0c-0.2,0-0.5,0-0.6,0c-0.1,0-0.2,0-0.2-0.1c0,0,0-0.1,0.1-0.1
			c0.1,0,0.2,0,0.3-0.1c0.2,0,0.3-0.3,0.3-0.6c0.1-0.5,0.1-1.4,0.1-2.4V43.9z"/>
		<path d="M103.2,48.9c-0.2-0.1-0.2-0.1-0.2-0.4c0-0.6,0-1,0.1-1.2c0-0.1,0-0.2,0.1-0.2c0.1,0,0.1,0,0.1,0.1c0,0.1,0,0.3,0,0.4
			c0.2,0.8,0.9,1.1,1.6,1.1c1.1,0,1.6-0.8,1.6-1.5c0-0.8-0.3-1.2-1.3-2l-0.5-0.4c-1.2-1-1.4-1.7-1.4-2.4c0-1.2,0.9-2,2.3-2
			c0.4,0,0.8,0,1,0.1c0.2,0,0.3,0.1,0.4,0.1c0.1,0,0.1,0,0.1,0.1c0,0.1,0,0.4,0,1.2c0,0.2,0,0.3-0.1,0.3c-0.1,0-0.1-0.1-0.1-0.1
			c0-0.1-0.1-0.4-0.1-0.6c-0.1-0.1-0.4-0.6-1.4-0.6c-0.8,0-1.4,0.5-1.4,1.3c0,0.6,0.3,1,1.4,1.9l0.3,0.2c1.3,1,1.6,1.7,1.6,2.6
			c0,0.5-0.2,1.3-1,1.9c-0.5,0.3-1.1,0.5-1.7,0.5C104.1,49.2,103.6,49.2,103.2,48.9z"/>
		<path d="M15.3,107.8c0-0.9,0-2,0-2.4c0-0.1,0-0.2,0.1-0.2c0.1,0,0.5-0.1,0.7-0.1c1.3,0,2.6,0.2,3.7,1.3c0.5,0.5,1.1,1.4,1.1,2.8
			c0,1-0.3,2.1-0.9,2.7c-0.7,0.7-1.6,1-2.7,1c-1.3,0-1.8-0.2-1.9-0.4c-0.1-0.1-0.1-0.6-0.1-0.9c0-0.2,0-1.2,0-2.4V107.8z M14.4,110
			c0,1.1,0,2-0.1,2.4c0,0.3-0.1,0.6-0.3,0.6c-0.1,0-0.2,0-0.3,0c-0.1,0-0.1,0-0.1,0.1c0,0.1,0.1,0.1,0.2,0.1c0.3,0,1,0,1.1,0
			c0.1,0,1.5,0.1,2.5,0.1c1.9,0,2.9-0.8,3.4-1.3c0.6-0.7,1.2-1.7,1.2-3.2c0-1.3-0.5-2.3-1.1-2.8c-1.3-1.4-3.4-1.3-4.5-1.3
			c-0.7,0-1.4,0-1.5,0c-0.1,0-0.8,0-1.3,0c-0.1,0-0.2,0-0.2,0.1c0,0,0,0.1,0.1,0.1c0.1,0,0.3,0,0.4,0c0.4,0.1,0.5,0.3,0.5,0.6
			c0,0.4,0,0.7,0,2.4V110z"/>
		<path d="M23.9,108c0-1.7,0-2.1,0-2.4c0-0.4-0.1-0.6-0.5-0.6c-0.1,0-0.3,0-0.4,0c0,0-0.1,0-0.1-0.1c0-0.1,0.1-0.1,0.2-0.1
			c0.5,0,1.2,0,1.3,0c0.1,0,2.3,0,2.6,0c0.2,0,0.4,0,0.5-0.1c0.1,0,0.1-0.1,0.2-0.1c0,0,0,0,0,0.1c0,0.1-0.1,0.2-0.1,0.5
			c0,0.1,0,0.6-0.1,0.7c0,0.1,0,0.1-0.1,0.1c-0.1,0-0.1-0.1-0.1-0.1c0-0.1,0-0.3-0.1-0.4c-0.1-0.2-0.2-0.3-0.8-0.4
			c-0.2,0-1.4,0-1.5,0c0,0-0.1,0-0.1,0.1v3.1c0,0.1,0,0.1,0.1,0.1c0.1,0,1.5,0,1.8,0c0.3,0,0.4,0,0.5-0.2c0.1-0.1,0.1-0.1,0.2-0.1
			c0,0,0.1,0,0.1,0.1c0,0.1-0.1,0.3-0.1,0.6c0,0.2,0,0.6,0,0.7c0,0.1,0,0.2-0.1,0.2c-0.1,0-0.1,0-0.1-0.1c0-0.1,0-0.2,0-0.4
			c0-0.2-0.1-0.3-0.6-0.4c-0.3,0-1.4-0.1-1.6-0.1c-0.1,0-0.1,0-0.1,0.1v1c0,0.4,0,1.7,0,1.9c0,0.8,0.2,0.9,1.3,0.9
			c0.3,0,0.8,0,1.1-0.1c0.3-0.1,0.4-0.3,0.5-0.8c0-0.1,0-0.2,0.1-0.2c0.1,0,0.1,0.1,0.1,0.2c0,0.1-0.1,0.8-0.1,1.1
			c-0.1,0.3-0.2,0.3-0.6,0.3c-1.7,0-2.4-0.1-2.8-0.1c0,0-0.2,0-0.5,0c-0.2,0-0.5,0-0.6,0c-0.1,0-0.2,0-0.2-0.1c0,0,0-0.1,0.1-0.1
			c0.1,0,0.2,0,0.3-0.1c0.2,0,0.3-0.3,0.3-0.6c0.1-0.5,0.1-1.4,0.1-2.4V108z"/>
		<g>
			<path d="M83.4,35.9L81,35.8L77.8,36l-9.6,44.3h11.2l-0.2,1.2H55.1l0.3-1.2h6.8c0.3-1.8,0.5-3.7,0.5-5.6c0-7.1-3.1-12.8-9.3-16.2
				C49,67.5,45,76.4,39.8,85l-0.6,0.9c-4.5,6.2-10.6,12.9-18.8,12.9C15.2,98.8,10,95,10,89.5c0-3.3,2.6-6.5,6-6.5
				c2.2,0,4.2,1.5,4.2,3.8c0,1.9-1.6,3.5-3.6,3.5c-3.1,0-4.1-3-2.9-5.5c-1.6,1-2.6,3-2.6,4.8c0,4.9,4.6,8.1,9.2,8.1
				c7.9,0,13.3-6.8,17.3-12.9c-4.1-3.7-7.4-8.1-7.4-14c0-8.7,7.1-15.1,15.7-15.1c2.2,0,4.5,0.6,6.6,1.2
				c6.4-11.3,14.2-22.6,28.5-22.3l2.7,0.1L83.4,35.9z M45.9,56.8c-8,0-14.6,5.9-14.6,14c0,5.7,2.8,9.5,6.9,13.1
				c4.7-8.5,8.7-17.5,13.8-26C49.9,57.3,48,56.8,45.9,56.8z M53.9,57.5c6.8,4.1,9.4,8.8,9.8,16.7l8.1-36.7
				C62.8,41.7,58.4,49.1,53.9,57.5z"/>
		</g>
		<g>
			<path d="M161.7,128c-14.3,15.7-37.2,26.6-56.4,27c-57.8,1-57.3-44.1-62.4-43.9l-1.6,0l-1.4,6.5l2.7,0.7l-0.1,0.7l-2.7-0.6
				l-1.4,6.7H43l-0.2,0.7H30.2l0.2-0.7h4.4l1.7-8.3c-3.3-2-5.7-5.2-5.7-9.1c0-7.3,6.5-11.3,13.1-11.7c1.7-1.9,3.7-3.7,5.8-5l0.4,0.5
				c-1.6,1.2-3,2.8-4.1,4.5c4.1,0.3,9.3,1.6,9.3,6.8c0,4.4-3.9,6.9-7.8,7.6c2.8,2.3,6.1,27.5,30.1,38.9c22,10.5,53.7,5.8,79.9-22.2
				c6.2-6.6,14-12,21.6-11.5c8.4,0.5,10.7,6.4,10.7,9.2c0,2.5-0.9,7.4-6.9,7.4c-2.3,0-3.8-1.8-3.6-4.2c0.1-1.3,1.4-3.1,3.5-3.1
				c2.4,0,3.5,1.8,3.5,3.1c0,1.1,0,1.9-0.8,2.7c0,0,3.2-1.2,3.2-5.9c0-3.8-4.3-7.7-9.3-7.7c-5,0-8.3,2-10.9,3.9
				C166.1,123.1,162.4,127.2,161.7,128z M31.6,107.8c0,3.6,2,6.5,5.1,8.3c1.5-7,2.5-13.4,6.7-19.3C37.4,97.4,31.6,101.1,31.6,107.8z
				 M45.7,96.8c-2.5,4.4-3.2,8.7-4.2,13.7c5-0.3,10-1.6,10-7.7C51.5,99,49.3,97.3,45.7,96.8z"/>
		</g>
		<g>
			<path d="M63.4,113.5c-0.1,0-0.1-0.1-0.1-0.2l3.3-6.9c0-0.1,0.1-0.3,0.2-0.3c0.1,0,0.1,0.1,0.1,0.3l1.8,6.9c0,0.1,0,0.2-0.2,0.2
				H63.4z M69,114.9c0.1,0,0.2,0.1,0.3,0.2l1.6,6c0.1,0.3-0.1,0.6-0.3,0.6c-0.3,0-0.4,0.1-0.4,0.2c0,0.2,0.3,0.2,0.8,0.2
				c2.2,0.1,4.3,0.1,5.3,0.1c1,0,1.3-0.1,1.3-0.3c0-0.2-0.1-0.2-0.3-0.2c-0.3,0-0.8,0-1.2-0.1c-0.6-0.1-1.3-0.5-2.1-3.1
				c-1.3-4.3-4.6-15.7-5.1-17.3c-0.2-0.6-0.4-0.9-0.6-0.9c-0.3,0-0.5,0.3-0.9,1.1l-8.9,17.6c-0.7,1.4-1.3,2.4-2.7,2.5
				c-0.2,0-0.6,0.1-0.9,0.1c-0.2,0-0.3,0.1-0.4,0.2c0,0.2,0.1,0.3,0.5,0.3c1.5,0,3-0.1,3.3-0.1c0.9,0,2.1,0.1,3,0.1
				c0.3,0,0.5-0.1,0.5-0.3c0-0.2-0.1-0.2-0.4-0.2h-0.4c-0.9,0-1.1-0.4-1-0.9c0-0.3,0.2-1,0.6-1.7l1.9-4c0.1-0.2,0.1-0.2,0.3-0.2H69z
				"/>
			<path d="M79.6,118.4c-0.2,2.2,0.1,2.9,0.7,3.1c0.5,0.2,1,0.2,1.4,0.2c0.3,0,0.5,0.1,0.5,0.2c0,0.2-0.3,0.3-0.7,0.3
				c-1.8,0-2.9-0.1-3.5-0.1c-0.3,0-1.6,0.1-3,0.1c-0.4,0-0.6,0-0.6-0.3c0-0.2,0.2-0.2,0.5-0.2c0.4,0,0.9,0,1.3-0.1
				c0.8-0.2,1-1,1.2-3.5l2-16.6c0.1-0.6,0.2-0.9,0.5-0.9c0.3,0,0.5,0.4,0.9,0.9c0.3,0.4,4.1,4.9,7.7,9c1.7,1.9,5.1,5.9,5.5,6.4h0.1
				l1.1-12.6c0.2-1.7,0-2.2-0.7-2.5c-0.4-0.2-1.1-0.2-1.5-0.2c-0.3,0-0.4-0.1-0.4-0.2c0-0.2,0.3-0.2,0.8-0.2c1.5,0,2.8,0.1,3.4,0.1
				c0.3,0,1.4-0.1,2.8-0.1c0.4,0,0.6,0,0.6,0.2c0,0.2-0.2,0.2-0.5,0.2c-0.3,0-0.5,0-0.9,0.1c-0.8,0.2-1.1,0.8-1.3,2.4l-2.2,17.7
				c-0.1,0.6-0.2,0.9-0.5,0.9c-0.3,0-0.6-0.3-0.9-0.6c-1.6-1.7-4.8-5.4-7.4-8.2c-2.7-3-5.5-6.5-5.9-7.1h-0.1L79.6,118.4z"/>
			<path d="M105.4,108.7c0.2-2.2,0.5-4.6,0.6-5.6c0-0.3,0.1-0.4,0.4-0.6c0.2-0.1,1.3-0.2,1.8-0.2c2.2,0,5.3,0.3,7.7,2.8
				c1.1,1.1,2.3,3.4,1.9,7c-0.3,2.9-1.1,5.4-3.1,7c-1.8,1.5-3.8,2-6.7,2c-2.2,0-3.2-0.6-3.6-1.1c-0.2-0.3-0.1-1.4-0.1-2.1
				c0-0.5,0.2-2.7,0.5-5.7L105.4,108.7z M101.3,114.1c-0.3,2.6-0.5,4.8-0.8,6c-0.2,0.8-0.4,1.4-1,1.5c-0.3,0.1-0.6,0.1-1,0.1
				c-0.3,0-0.5,0.1-0.5,0.2c0,0.2,0.2,0.3,0.5,0.3c1.1,0,2.9-0.1,3.5-0.1c1.4,0,3.9,0.3,5.9,0.3c5.2,0,8.3-2,9.7-3.3
				c1.7-1.6,3.5-4.3,3.9-7.8c0.4-3.3-0.7-5.7-2-7.1c-2.7-3.2-7.4-3.2-10.9-3.2c-1.7,0-3.5,0.1-4.3,0.1c-0.8,0-2.5-0.1-4-0.1
				c-0.4,0-0.6,0.1-0.6,0.2c0,0.2,0.1,0.2,0.5,0.2c0.4,0,0.9,0,1.1,0.1c0.9,0.2,1.1,0.6,1,1.6c0,0.9-0.1,1.7-0.6,5.9L101.3,114.1z"
				/>
			<path d="M126.5,113.5c-0.1,0-0.1-0.1-0.1-0.2l3.3-6.9c0-0.1,0.1-0.3,0.2-0.3c0.1,0,0.1,0.1,0.1,0.3l1.8,6.9c0,0.1,0,0.2-0.2,0.2
				H126.5z M132,114.9c0.1,0,0.2,0.1,0.3,0.2l1.6,6c0.1,0.3-0.1,0.6-0.3,0.6c-0.3,0-0.4,0.1-0.4,0.2c0,0.2,0.3,0.2,0.8,0.2
				c2.2,0.1,4.3,0.1,5.3,0.1c1,0,1.3-0.1,1.3-0.3c0-0.2-0.1-0.2-0.3-0.2c-0.3,0-0.8,0-1.2-0.1c-0.6-0.1-1.3-0.5-2.1-3.1
				c-1.3-4.3-4.6-15.7-5.1-17.3c-0.2-0.6-0.4-0.9-0.6-0.9c-0.3,0-0.5,0.3-0.9,1.1l-8.9,17.6c-0.7,1.4-1.3,2.4-2.7,2.5
				c-0.2,0-0.6,0.1-0.9,0.1c-0.2,0-0.3,0.1-0.4,0.2c0,0.2,0.1,0.3,0.5,0.3c1.5,0,3-0.1,3.3-0.1c0.9,0,2.1,0.1,3,0.1
				c0.3,0,0.5-0.1,0.5-0.3c0-0.2-0.1-0.2-0.4-0.2H124c-0.9,0-1.1-0.4-1-0.9c0-0.3,0.2-1,0.6-1.7l1.9-4c0.1-0.2,0.1-0.2,0.3-0.2H132z
				"/>
			<path d="M143.7,118.4c-0.2,2.2,0.1,2.9,0.7,3.1c0.5,0.2,1,0.2,1.4,0.2c0.3,0,0.5,0.1,0.5,0.2c0,0.2-0.3,0.3-0.7,0.3
				c-1.8,0-2.9-0.1-3.5-0.1c-0.3,0-1.6,0.1-3,0.1c-0.4,0-0.6,0-0.6-0.3c0-0.2,0.2-0.2,0.5-0.2c0.4,0,0.9,0,1.3-0.1
				c0.8-0.2,1-1,1.2-3.5l2-16.6c0.1-0.6,0.2-0.9,0.5-0.9c0.3,0,0.5,0.4,0.9,0.9c0.3,0.4,4.1,4.9,7.7,9c1.7,1.9,5.1,5.9,5.5,6.4h0.1
				l1.1-12.6c0.2-1.7,0-2.2-0.7-2.5c-0.4-0.2-1.1-0.2-1.5-0.2c-0.3,0-0.4-0.1-0.4-0.2c0-0.2,0.3-0.2,0.8-0.2c1.5,0,2.8,0.1,3.4,0.1
				c0.3,0,1.4-0.1,2.8-0.1c0.4,0,0.6,0,0.6,0.2c0,0.2-0.2,0.2-0.5,0.2c-0.3,0-0.5,0-0.9,0.1c-0.8,0.2-1.1,0.8-1.3,2.4l-2.2,17.7
				c-0.1,0.6-0.2,0.9-0.5,0.9c-0.3,0-0.6-0.3-0.9-0.6c-1.6-1.7-4.8-5.4-7.4-8.2c-2.7-3-5.5-6.5-5.9-7.1h-0.1L143.7,118.4z"/>
		</g>
	</g>
	<g>
		<g>
			<g>
				<path d="M58.2,87.9h2.7c2.1,0,3.7,1.6,3.7,3.7c0,2.1-1.7,3.7-3.7,3.7h-2.7V87.9z M60.1,93.7h0.4c1.1,0,2.1-0.6,2.1-2.1
					c0-1.3-0.9-2.1-2.1-2.1h-0.5V93.7z"/>
				<path d="M73.7,87.9v4.1c0,0.9,0,1.9-0.8,2.6c-0.6,0.6-1.6,0.8-2.4,0.8c-0.9,0-1.8-0.2-2.4-0.8c-0.7-0.7-0.8-1.7-0.8-2.6v-4.1
					h1.9v3.9c0,1,0.1,2,1.3,2s1.3-1,1.3-2v-3.9H73.7z"/>
				<path d="M81.8,87.9h2.7c2.1,0,3.7,1.6,3.7,3.7c0,2.1-1.7,3.7-3.7,3.7h-2.7V87.9z M83.7,93.7h0.4c1.1,0,2.1-0.6,2.1-2.1
					c0-1.3-0.9-2.1-2.1-2.1h-0.4V93.7z"/>
				<path d="M98.7,91.5c0,2.4-1.7,4.1-4.1,4.1c-2.4,0-4.1-1.7-4.1-4.1c0-2.2,2-3.8,4.1-3.8C96.7,87.7,98.7,89.2,98.7,91.5z
					 M92.5,91.5c0,1.3,0.9,2.2,2.1,2.2c1.1,0,2.1-0.9,2.1-2.2c0-1-0.9-1.9-2.1-1.9C93.4,89.5,92.5,90.5,92.5,91.5z"/>
				<path d="M102.1,87.9h1.9l1.5,3.9l1.6-3.9h1.9l1.1,7.4h-1.9l-0.5-4.2h0l-1.8,4.2h-0.8l-1.7-4.2h0l-0.6,4.2h-1.9L102.1,87.9z"/>
				<path d="M114.6,94l-0.5,1.3h-2l2.8-7.4h2.1l2.8,7.4h-2l-0.5-1.3H114.6z M115.9,90.2L115.9,90.2l-0.8,2.3h1.6L115.9,90.2z"/>
				<path d="M124,95.3h-1.9v-7.4h1.9V95.3z"/>
				<path d="M127,87.9h1.9l3.5,4.5h0v-4.5h1.9v7.4h-1.9l-3.5-4.5h0v4.5H127V87.9z"/>
				<path d="M139.3,89.5v1.2h2.2v1.6h-2.2v1.3h2.3v1.6h-4.2v-7.4h4.2v1.6H139.3z"/>
				<path d="M155.8,95.3h-2.4l-1.8-2.8h0v2.8h-1.9v-7.4h2.9c1.5,0,2.6,0.7,2.6,2.3c0,1-0.6,1.9-1.6,2.1L155.8,95.3z M151.6,91.2h0.2
					c0.6,0,1.3-0.1,1.3-0.9c0-0.8-0.7-0.9-1.3-0.9h-0.2V91.2z"/>
				<path d="M165.9,91.5c0,2.4-1.7,4.1-4.1,4.1c-2.4,0-4.1-1.7-4.1-4.1c0-2.2,2-3.8,4.1-3.8C163.9,87.7,165.9,89.2,165.9,91.5z
					 M159.7,91.5c0,1.3,0.9,2.2,2.1,2.2c1.1,0,2.1-0.9,2.1-2.2c0-1-0.9-1.9-2.1-1.9C160.6,89.5,159.7,90.5,159.7,91.5z"/>
				<path d="M167.7,87.9h2.3l1.4,2l1.4-2h2.3l-2.7,3.8v3.5h-1.9v-3.5L167.7,87.9z"/>
				<path d="M178,94l-0.5,1.3h-2l2.8-7.4h2.1l2.8,7.4h-2l-0.5-1.3H178z M179.3,90.2L179.3,90.2l-0.8,2.3h1.6L179.3,90.2z"/>
				<path d="M187.4,93.7h2.3v1.6h-4.2v-7.4h1.9V93.7z"/>
			</g>
		</g>
		<path id="XMLID_1_" d="M79.2,164c0,0,6.5-3.8,7.1-4.6c0.7-0.9-1.2-0.6-1.5-1.3c-0.5-1.5,1.6-1.2,1.7-2.2c0.1-1-2.3-2.7-0.5-4.4
			c1.4-1.3,2.6,0.6,3.4-0.1c1.1-1-1.7-4.9-0.9-6.7c1.4-2.9,3.8,1,4.8,0c1.1-1.2-1.3-5.8,1.1-7.3c2.1-1.3,3.4,1.7,4.6,1.7
			c1.4,0,0.3-5.4,2.6-6.3c2.2-0.8,3,1.6,4,1.6c1,0,0.2-3,1.7-3.7c1.8-0.8,2.7,1.6,3.7,1.6c1-0.1,0.6-1.6,1.8-1.6
			c0.9,0.1,0.9,0.8,1.6,1.1c0.7,0.3,1.4-1,2.3-0.2c0.9,0.9-0.4,1.8,0,2.4c0.2,0.5,1.1,0.3,1.4,1c0.6,1.2-1,1.3-0.8,2.1
			c0.1,0.6,1.6,0.5,1.8,1.8c0.3,2.3-3.9,2.6-3.8,3.7c0.1,1.1,3,0.3,3.1,2.5c0.1,2.6-6.1,3.7-5.7,5.2c0.2,0.7,3.2,0.5,3.1,2.5
			c-0.2,3.4-8.3,2.7-8.9,4.2c-0.4,1,2.1,1.1,1,3.1c-1.8,3.2-7.9-1-8.6-0.2c-0.7,0.7,1.5,2-0.3,3.1c-2.3,1.4-6.2-3.3-7-3.1
			c-0.9,0.2-0.3,1.6-1.3,2.2c-1.9,1.1-1.6-2.5-3.5-2.3c-2.1,0.5-5.4,5.5-5.4,5.5S81.2,164.1,79.2,164z"/>
	</g>
</g>
</svg>
