<?xml version="1.0" encoding="utf-8"?><svg xmlns="http://www.w3.org/2000/svg" xmlns:xlink="http://www.w3.org/1999/xlink"><symbol viewBox="0 0 48 48" class="ac-logo--svg" id="dc-logo"><title>David Cazalis</title><g class="ac-logo__dc" fill="currentColor"><path class="ac-logo__path" d="M33 31.6c-4 0-7.3-3.3-7.3-7.3 0-5.5-4.5-10-10-10-.7 0-1.4.6-1.4 1.4s.6 1.4 1.4 1.4c4 0 7.3 3.3 7.3 7.3 0 5.5 4.5 10 10 10 .7 0 1.4-.6 1.4-1.4 0-.7-.7-1.4-1.4-1.4zM20.6 29.8c-1.4 1.2-2.2 1.9-4.9 1.9-.7 0-1.4.6-1.3 1.4 0 .7.6 1.3 1.4 1.3 3.4 0 4.8-1 6.6-2.5.6-.5.6-1.3.2-1.9-.6-.6-1.4-.7-2-.2zM33 14.3c-3.4 0-4.8 1-6.6 2.5-.6.5-.6 1.3-.2 1.9.3.3.6.5 1 .5.3 0 .6-.1.9-.3 1.5-1.3 2.3-1.9 4.9-1.9.7 0 1.4-.6 1.4-1.4s-.7-1.3-1.4-1.3z"/></g><circle class="ac-logo__circle ac-logo__path" cx="24" cy="24" r="22.5" stroke="currentColor" stroke-width="3" fill="none"/></symbol></svg>