<?xml version="1.0" encoding="utf-8"?><!DOCTYPE svg PUBLIC "-//W3C//DTD SVG 1.1//EN" "http://www.w3.org/Graphics/SVG/1.1/DTD/svg11.dtd"><svg xmlns="http://www.w3.org/2000/svg" xmlns:xlink="http://www.w3.org/1999/xlink"><symbol viewBox="0 0 48 48" class="ac-logo--svg" id="dc-logo"><title>David Cazalis</title><g class="ac-logo__dc" fill="currentColor"><path class="ac-logo__path" d="M33 31.6c-4 0-7.3-3.3-7.3-7.3 0-5.5-4.5-10-10-10-.7 0-1.4.6-1.4 1.4s.6 1.4 1.4 1.4c4 0 7.3 3.3 7.3 7.3 0 5.5 4.5 10 10 10 .7 0 1.4-.6 1.4-1.4 0-.7-.7-1.4-1.4-1.4zM20.6 29.8c-1.4 1.2-2.2 1.9-4.9 1.9-.7 0-1.4.6-1.3 1.4 0 .7.6 1.3 1.4 1.3 3.4 0 4.8-1 6.6-2.5.6-.5.6-1.3.2-1.9-.6-.6-1.4-.7-2-.2zM33 14.3c-3.4 0-4.8 1-6.6 2.5-.6.5-.6 1.3-.2 1.9.3.3.6.5 1 .5.3 0 .6-.1.9-.3 1.5-1.3 2.3-1.9 4.9-1.9.7 0 1.4-.6 1.4-1.4s-.7-1.3-1.4-1.3z"/></g><circle class="ac-logo__circle ac-logo__path" cx="24" cy="24" r="22.5" stroke="currentColor" stroke-width="2" fill="none"/></symbol><symbol viewBox="-79 0.5 200 200" id="project-logo-euromaster"><title>Euromaster</title><g transform="translate(-347 -1359)"><path d="M284.9 1508.1h11.5l.3 4.3h-7v3.6h6.2v4.3h-6.2v4h7l-.6 4.4h-11.2v-20.6M314.5 1508.1v12c0 6-2.5 9-7.3 9s-7.3-3-7.3-9v-12h4.4v12.2c0 2.7 1 4 2.9 4 2 0 2.9-1.3 2.9-4v-12.2h4.4M325.2 1507.5c3.1.6 5.1 2.2 5.9 4.4.9 2.3.9 4.2.1 5.8-.6 1.4-1.6 2.4-2.9 2.9l4.8 7.2-4.9 1.7-5.6-9.2h-.1v8.4h-4.8v-20.6c2.6-.8 5-.9 7.5-.6zm-2.7 12.1c1.1.1 2.1-.2 3-1 .8-.9 1.3-1.9 1.4-3.1 0-1.3-.7-2.3-1.8-2.9-1.2-.5-2-.5-2.6-.1v7.1zM335.7 1510.7c1.5-2.1 3.5-3.2 6.1-3.2 2.5 0 4.6 1.1 6 3.2 1.4 2.1 2.1 4.7 2.1 7.7 0 3.1-.7 5.6-2.1 7.7-1.4 2.1-3.5 3.2-6 3.2-2.6 0-4.6-1.1-6.1-3.2-1.4-2.1-2.2-4.6-2.2-7.7 0-2.9.8-5.6 2.2-7.7zm2.3 7.8c0 1.8.3 3.1.8 4.3.8 1.3 1.7 1.9 3 1.9 1.2 0 2.2-.6 3-1.9.6-1.2 1-2.5 1-4.3s-.3-3.1-1-4.2c-.8-1.4-1.8-2-3-2-1.3 0-2.3.6-3 2-.5 1-.8 2.4-.8 4.2zM383.9 1508.1l7 20.6h-5.1l-.8-2.5h-7.3l-.8 2.5H372l7-20.6h4.9zm-5 13.9h4.8l-2.3-8.2-2.5 8.2zM419.2 1508l-.5 4.3h-3.8v16.5H410v-16.5h-4.8l.6-4.3h13.4M442.8 1507.5c3.1.6 5 2.2 5.9 4.4.8 2.3.8 4.2 0 5.8-.6 1.4-1.6 2.4-2.7 2.9l4.8 7.2-4.9 1.7-5.7-9.2v8.4h-4.9v-20.6c2.4-.8 4.8-.9 7.5-.6zm-2.7 5.1v7c1.1.1 2.1-.2 2.9-1 1-.9 1.4-1.9 1.4-3.1 0-1.3-.6-2.3-1.8-2.9-1.1-.5-2-.5-2.5 0zM425.9 1516.1h6.2v4.3h-6.2v4h7l-.6 4.4h-11.2v-20.6h11.5l.3 4.3h-7v3.6M449 1508.5h-.4v-.2h1.1v.2h-.5v1.3h-.2v-1.3M451.1 1508.3v1.5h-.2v-1.2l-.4 1.2h-.1l-.5-1.2v1.2h-.1v-1.5h.3l.4 1.2.4-1.2h.2M397.1 1520.6c1.4.8 2.1 1.6 2.1 2.3-.1 1.2-.7 1.7-1.8 1.7-1 0-2.3-.6-3.6-2.1l-2.7 3.8c1.8 1.8 3.8 2.7 6.1 2.7 2.1 0 3.6-.5 4.8-1.7 1.4-1.2 2.1-2.9 2.1-5 0-1.6-.6-2.9-1.8-4.1-.8-.8-2.1-1.6-4.1-2.6-1.4-.8-2.1-1.4-2.1-2.2 0-1.2.5-1.7 1.6-1.7 1 0 2.3.6 3.6 2.1l2.7-3.8c-1.8-1.8-3.8-2.7-6-2.7-2 0-3.6.5-4.9 1.6-1.4 1.2-2.1 2.9-2.1 5 0 1.7.7 3.2 2.1 4.4.6.5 2 1.3 4 2.3M352.8 1508l-.8 20.8h4.8l.3-10.8 4.2 8.3 4.2-8.3.5 10.8h4.6l-.8-20.8h-4.4l-4.2 7.7-4.2-7.7h-4.2M366.8 1389.5h-49.4V1491.2h101.7v-101.7h-52.3zm-15.7 5l7.2-.1-5.3 10h-7.2l5.3-9.9zm11.3 16.4l-6.8 3-9-6.5 6.8-3 9 6.5zm-23.8-10.1l6.8-2-2.1 10.8 10.8 3.5-5.5 5-10.6-3.5 5.2-5-6.8 2.3 2.2-11.1zm8.2 17.2l-3.6 6.5-11.3-.3 3.6-6.2h11.3zm-5.6 6.8l-1.2 7.3-10.9 3.5 1.5-7 10.6-3.8zm-6.7-17.8l.8 11.3-6.4 3.8-.4-11.1 6-4zm-8.6 11.3l4.4 10.6-4.5 5.8-4.4-10.6 4.5-5.8zm39.1 70.5c-6-.3-11.9-1.6-17.6-4.1-5.3-2.6-10.1-5.7-14.4-10.1-4.2-4.2-7.9-9.1-10.1-14.4-2.5-5.7-4-11.5-4.2-17.6h19.6c.5 7 3.3 13 8.6 18.3 5 5.1 11.1 7.9 18.1 8.3v19.6zm46.3-28.6c-2.5 5.3-5.7 10.1-10.1 14.4-4.2 4.4-9 7.5-14.4 10.1-5.7 2.5-11.5 3.8-17.5 4.1v-19.6c6.9-.4 13-3.1 18.1-8.3 5.3-5.3 8-11.3 8.5-18.3h19.6c-.1 6.3-1.6 12.1-4.2 17.6zm-15.1-21.9c-.5-7.2-3.2-13.3-8.5-18.3-5.1-5.3-11.2-8.1-18.1-8.3v-19.6c6 .1 11.8 1.5 17.5 3.9 5.3 2.6 10.1 5.9 14.4 10.2 4.4 4.2 7.9 9 10.1 14.4 2.6 5.7 4.1 11.6 4.2 17.8h-19.6z"/></g></symbol><symbol viewBox="-79 0.5 200 200" id="project-logo-fidroit"><path class="cst0" d="M42.8 90.3L21 57-.8 90.3M-56.8 104h20.9v4.5h-18.6v6.3h17.9v3.8h-17.9v8.6h-4.7v-21c.1-1.3 1-2.2 2.4-2.2zm23.4 23.3h4.7V104h-4.7v23.3zm102.9 0h4.7V104h-4.7v23.3zm6.4-23.3v4.5h10.3v18.8h4.7v-18.8h10.3V104H75.9zm-9.6 4.2c.6 1.5.9 4 .9 7.4 0 3.4-.3 5.9-.9 7.5-.7 1.9-2.2 3.1-4.3 3.7-1.6.4-4.3.6-8.3.6h-3.1c-4 0-6.7-.2-8.3-.6-2.1-.6-3.5-1.8-4.3-3.7-.6-1.5-.9-4-.9-7.5 0-3.4.3-5.9.9-7.4.7-1.9 2.2-3.1 4.3-3.7 1.6-.4 4.3-.6 8.3-.6h3.1c4 0 6.7.2 8.3.6 2.2.6 3.6 1.8 4.3 3.7zm-3.7 7.4c0-3.9-.3-5.3-.5-5.8-.1-.2-.4-.9-1.9-1.2-1.5-.3-3.7-.4-6.6-.4h-2.8c-2.9 0-5.1.1-6.6.4-1.5.3-1.8 1-1.9 1.2-.2.5-.5 1.8-.5 5.8 0 3.9.3 5.3.5 5.8.1.2.4.9 1.9 1.2 1.5.3 3.7.4 6.6.4h2.8c2.9 0 5.1-.1 6.6-.4 1.5-.3 1.8-1 1.9-1.2.1-.5.5-1.8.5-5.8zm-59-7.3c.7 1.6 1 4 1 7.4 0 3.4-.3 5.7-1 7.3-.9 1.9-2.5 3.3-4.7 3.9-1.7.4-4.6.5-9.2.5h-12.6c-1.4 0-2.3-.9-2.3-2.2v-18.8c0-1.4.9-2.2 2.3-2.2h12.6c4.6 0 7.5 0 9.2.4 2.2.4 3.9 1.8 4.7 3.7zM0 115.7c0-3.9-.4-5.1-.6-5.5-.5-.8-1.4-1.3-2.4-1.5-1.3-.2-3.1-.2-5.4-.2h-12.1v14.3H-7c1.7 0 3 0 4-.2s1.9-.7 2.4-1.5c.2-.4.6-1.6.6-5.4zm34.9-3.2c0 .9 0 2.9-1.3 4.5 1 1.5 1 3.2 1 4v6.3h-4.7v-5.8c0-1.1-.1-1.8-.5-2.2-.6-.5-1.7-.6-2.9-.6h-15v8.6H6.8v-21c0-1.4.9-2.2 2.3-2.2h13.8c4.8 0 8 0 10.1 2.1 1.7 1.7 1.9 4.2 1.9 5.9v.4zm-4.5-.4c0-1.4-.1-2.3-.6-2.8-.9-.9-2.9-.8-6.9-.8H11.4v6.3H27c1.2 0 2.3 0 2.9-.6.4-.3.5-1 .5-2.1zM-59.2 136.5h.6v5.3h3.7v.6h-4.3v-5.9zM-49.6 141c-.2.8-.9 1.5-2.3 1.5-1.8 0-2.3-1.2-2.3-2.3 0-1.2.7-2.3 2.3-2.3 1.1 0 2.4.5 2.4 2.4h-4.1c0 .9.6 1.6 1.7 1.6 1 0 1.5-.3 1.7-1h.6zm-.5-1.1c-.2-1.1-.9-1.5-1.8-1.5-.8 0-1.6.4-1.8 1.5h3.6zM-41.7 140.8c-.1.6-.6 1.7-2.2 1.7s-2.4-.9-2.4-2.3c0-1.3.8-2.3 2.4-2.3 1.5 0 2 .9 2.1 1.5h-.6c-.2-.7-.8-1-1.5-1-1.2 0-1.8.8-1.8 1.8 0 1.1.6 1.8 1.8 1.8.9 0 1.4-.5 1.6-1.2h.6zM-36.3 141c-.2.8-.9 1.5-2.3 1.5-1.8 0-2.3-1.2-2.3-2.3 0-1.2.7-2.3 2.3-2.3 1.1 0 2.4.5 2.4 2.4h-4.1c0 .9.6 1.6 1.7 1.6 1 0 1.5-.3 1.7-1h.6zm-.6-1.1c-.2-1.1-.9-1.5-1.8-1.5-.8 0-1.6.4-1.8 1.5h3.6zM-31.6 139.6c0-.8-.5-1.1-1.3-1.1-1.2 0-1.7.6-1.7 1.6v2.3h-.6v-4.3h.6v.8c.2-.5.8-1 1.8-1 1.4 0 1.9.7 1.9 1.8v2.7h-.6v-2.8zM-29.5 136.7h.6v1.4h1.2v.5h-1.2v2.8c0 .4.1.5.6.5h.6v.5h-.7c-.9 0-1.2-.4-1.2-1.1v-2.8h-.9v-.5h.9v-1.3zM-26.8 138.1h.6v1c.2-.5.6-1.1 1.6-1.1h.4v.6h-.6c-.7 0-1.5.4-1.5 1.6v2.2h-.6v-4.3zM-19 141c-.2.8-.9 1.5-2.3 1.5-1.8 0-2.3-1.2-2.3-2.3 0-1.2.7-2.3 2.3-2.3 1.1 0 2.4.5 2.4 2.4H-23c0 .9.6 1.6 1.7 1.6 1 0 1.5-.3 1.7-1h.6zm-.5-1.1c-.2-1.1-.9-1.5-1.8-1.5-.8 0-1.6.4-1.8 1.5h3.6zM-11.5 141.5c-.2.4-.7 1-1.8 1-1.8 0-2.3-1.2-2.3-2.3 0-1.2.7-2.3 2.3-2.3.8 0 1.5.4 1.7 1v-2.5h.6v5.9h-.6v-.8zm-1.8-3c-1 0-1.7.7-1.7 1.8 0 .9.5 1.8 1.7 1.8 1 0 1.8-.6 1.8-1.8 0-1-.5-1.8-1.8-1.8zM-5.3 141c-.2.8-.9 1.5-2.3 1.5-1.8 0-2.3-1.2-2.3-2.3 0-1.2.7-2.3 2.3-2.3 1.1 0 2.4.5 2.4 2.4h-4.1c0 .9.6 1.6 1.7 1.6 1 0 1.5-.3 1.7-1h.6zm-.5-1.1c-.2-1.1-.9-1.5-1.8-1.5-.8 0-1.6.4-1.8 1.5h3.6zM1.8 138.1h.7l-2 4.3h-.7l-2-4.3h.7l1.7 3.6 1.6-3.6zM3.1 139.4c.1-.9.6-1.5 2-1.5s2 .4 2 1.3v2.2c0 .4.1.5.3.5h.3v.4c-.1 0-.3.1-.5.1-.6 0-.7-.4-.7-.8-.2.3-.6.9-2 .9-.7 0-1.7-.3-1.7-1.3 0-1.2 1.2-1.3 2.1-1.3 1.3-.1 1.5-.1 1.5-.6 0-.6-.4-.8-1.4-.8-1 0-1.4.3-1.5.9h-.4zm3.4.7c-.3.2-.7.2-1.9.3-.7.1-1.1.3-1.1.8 0 .7.6.9 1.2.9.8 0 1.8-.4 1.8-1.3v-.7zM8.3 136.4h.6v5.9h-.6v-5.9zM12.3 138c1.6 0 2.4 1.1 2.4 2.3 0 1.2-.8 2.3-2.4 2.3s-2.4-1.1-2.4-2.3c0-1.3.8-2.3 2.4-2.3zm0 4c1.2 0 1.8-.7 1.8-1.8 0-1-.7-1.8-1.8-1.8-1.2 0-1.8.7-1.8 1.8s.7 1.8 1.8 1.8zM15.8 138.1h.6v1c.2-.5.6-1.1 1.6-1.1h.4v.6h-.6c-.7 0-1.5.4-1.5 1.6v2.2h-.6v-4.3zM19 136.4h.6v.9H19v-.9zm0 1.7h.6v4.3H19v-4.3zM23.9 139.4c-.2-.7-.6-.9-1.5-.9-.6 0-1.2.1-1.2.7 0 .4.3.5 1.6.7 1.3.2 1.9.4 1.9 1.2 0 .8-.7 1.4-2 1.4-1.4 0-2.2-.4-2.2-1.5h.5c.1.7.5 1 1.6 1 .8 0 1.4-.2 1.4-.8 0-.4-.3-.6-1.6-.8-1.3-.1-1.8-.4-1.8-1.2 0-.7.6-1.3 1.8-1.3 1.4 0 2 .5 2 1.4h-.5zM25.5 139.4c.1-.9.6-1.5 2-1.5s2 .4 2 1.3v2.2c0 .4.1.5.3.5h.3v.4c-.1 0-.3.1-.5.1-.6 0-.7-.4-.7-.8-.2.3-.6.9-2 .9-.7 0-1.7-.3-1.7-1.3 0-1.2 1.2-1.3 2.1-1.3 1.3-.1 1.5-.1 1.5-.6 0-.6-.4-.8-1.4-.8-1 0-1.4.3-1.5.9h-.4zm3.5.7c-.3.2-.7.2-1.9.3-.7.1-1.1.3-1.1.8 0 .7.6.9 1.2.9.8 0 1.8-.4 1.8-1.3v-.7zM31.2 136.7h.6v1.4H33v.5h-1.2v2.8c0 .4.1.5.6.5h.6v.5h-.7c-.9 0-1.2-.4-1.2-1.1v-2.8h-.9v-.5h.9v-1.3zM33.9 136.4h.6v.9h-.6v-.9zm0 1.7h.6v4.3h-.6v-4.3zM37.9 138c1.6 0 2.4 1.1 2.4 2.3 0 1.2-.8 2.3-2.4 2.3-1.6 0-2.4-1.1-2.4-2.3 0-1.3.8-2.3 2.4-2.3zm0 4c1.2 0 1.8-.7 1.8-1.8 0-1-.7-1.8-1.8-1.8-1.2 0-1.8.7-1.8 1.8s.7 1.8 1.8 1.8zM45 139.6c0-.8-.5-1.1-1.3-1.1-1.2 0-1.7.6-1.7 1.6v2.3h-.6v-4.3h.6v.8c.2-.5.8-1 1.8-1 1.4 0 1.9.7 1.9 1.8v2.7H45v-2.8zM49.2 138.1h.6v.9c.2-.4.6-1 1.7-1 1.8 0 2.3 1.2 2.3 2.3 0 1.2-.7 2.3-2.3 2.3-.8 0-1.5-.4-1.7-1v2.5h-.6v-6zm2.4 3.9c1 0 1.7-.7 1.7-1.8 0-.9-.5-1.8-1.7-1.8-1 0-1.8.6-1.8 1.8 0 .9.6 1.8 1.8 1.8zM54.9 139.4c.1-.9.6-1.5 2-1.5s2 .4 2 1.3v2.2c0 .4.1.5.3.5h.3v.4c-.1 0-.3.1-.5.1-.6 0-.7-.4-.7-.8-.2.3-.6.9-2 .9-.7 0-1.7-.3-1.7-1.3 0-1.2 1.2-1.3 2.1-1.3 1.3-.1 1.5-.1 1.5-.6 0-.6-.4-.8-1.4-.8-1 0-1.4.3-1.5.9h-.4zm3.5.7c-.3.2-.7.2-1.9.3-.7.1-1.1.3-1.1.8 0 .7.6.9 1.2.9.8 0 1.8-.4 1.8-1.3v-.7zM60.6 136.7h.6v1.4h1.2v.5h-1.2v2.8c0 .4.1.5.6.5h.6v.5h-.7c-.9 0-1.2-.4-1.2-1.1v-2.8h-.9v-.5h.9v-1.3zM63.3 138.1h.6v1c.2-.5.6-1.1 1.6-1.1h.4v.6h-.6c-.7 0-1.5.4-1.5 1.6v2.2h-.6v-4.3zM66.6 136.4h.6v.9h-.6v-.9zm0 1.7h.6v4.3h-.6v-4.3zM75 139.7c0-.8-.4-1.2-1.3-1.2s-1.5.5-1.5 1.4v2.5h-.6v-2.9c0-.5-.4-1-1.2-1-.9 0-1.5.5-1.5 1.5v2.4h-.6v-4.3h.6v.8c.3-.5.7-.9 1.7-.9s1.4.5 1.5.9c.2-.4.8-.9 1.7-.9 1.2 0 1.8.6 1.8 1.5v2.9H75v-2.7zM79 138c1.6 0 2.4 1.1 2.4 2.3 0 1.2-.8 2.3-2.4 2.3-1.6 0-2.4-1.1-2.4-2.3 0-1.3.8-2.3 2.4-2.3zm0 4c1.2 0 1.8-.7 1.8-1.8 0-1-.7-1.8-1.8-1.8-1.2 0-1.8.7-1.8 1.8s.7 1.8 1.8 1.8zM86.1 139.6c0-.8-.5-1.1-1.3-1.1-1.2 0-1.7.6-1.7 1.6v2.3h-.6v-4.3h.6v.8c.2-.5.8-1 1.8-1 1.4 0 1.9.7 1.9 1.8v2.7h-.6v-2.8zM87.9 136.4h.6v.9h-.6v-.9zm0 1.7h.6v4.3h-.6v-4.3zM89.6 139.4c.1-.9.6-1.5 2-1.5s2 .4 2 1.3v2.2c0 .4.1.5.3.5h.3v.4c-.1 0-.3.1-.5.1-.6 0-.7-.4-.7-.8-.2.3-.6.9-2 .9-.7 0-1.7-.3-1.7-1.3 0-1.2 1.2-1.3 2.1-1.3 1.3-.1 1.5-.1 1.5-.6 0-.6-.4-.8-1.4-.8-1 0-1.4.3-1.5.9h-.4zm3.4.7c-.3.2-.7.2-1.9.3-.7.1-1.1.3-1.1.8 0 .7.6.9 1.2.9.8 0 1.8-.4 1.8-1.3v-.7zM94.8 136.4h.6v5.9h-.6v-5.9zM101.1 141c-.2.8-.9 1.5-2.3 1.5-1.8 0-2.3-1.2-2.3-2.3 0-1.2.7-2.3 2.3-2.3 1.1 0 2.4.5 2.4 2.4H97c0 .9.6 1.6 1.7 1.6 1 0 1.5-.3 1.7-1h.7zm-.5-1.1c-.2-1.1-.9-1.5-1.8-1.5-.8 0-1.6.4-1.8 1.5h3.6z"/></symbol><symbol viewBox="0 0 200 200" id="project-logo-monbento"><path d="M125.8 66.1H74.2c-3.2 0-5.8 2.6-5.8 5.7v5.9h8.3v-3.9c0-2.4 1.9-4.2 4.2-4.2H119c2.4 0 4.2 1.9 4.2 4.2v3.9h8.3v-5.9c.1-3.1-2.6-5.7-5.7-5.7zM123.3 85c0 2.4-1.9 4.2-4.2 4.2H81c-2.4 0-4.2-1.9-4.2-4.2v-3.9h-8.4V87c0 3.1 2.6 5.7 5.8 5.7h51.6c3.1 0 5.8-2.6 5.8-5.7v-5.9h-8.3V85zm-17-5.6c0-3.4-2.9-6.3-6.3-6.3s-6.3 2.8-6.3 6.3c0 3.4 2.9 6.3 6.3 6.3s6.3-2.9 6.3-6.3zM38.6 115c-1-.6-2.2-.9-3.5-.9-1.3 0-2.5.3-3.6.9-1.1.6-2.1 1.4-2.8 2.6-.6-1.1-1.4-2-2.3-2.6-1-.6-2.1-.9-3.2-.9-1.2 0-2.3.2-3.2.7-1 .4-1.9 1.1-2.8 2v-2.2h-4.7v18.8h4.7V125c0-1.8.2-3.1.5-3.9.3-.9.8-1.5 1.5-2s1.4-.7 2.2-.7c.7 0 1.3.2 1.8.6s.9.9 1.1 1.7c.3.8.4 2 .4 3.6v9.1h4.8V125c0-1.8.2-3.1.5-3.9s.8-1.5 1.5-1.9c.7-.5 1.4-.7 2.2-.7 1.1 0 1.9.4 2.4 1.2.5.8.8 2.2.8 4.3v9.5h4.8v-11.2c0-2.3-.2-3.9-.7-4.9-.7-.9-1.5-1.7-2.4-2.4zM63.6 118.9c-1-1.4-2.2-2.7-3.7-3.5-1.6-.9-3.2-1.4-5-1.4-2.5 0-4.6.9-6.6 2.6-2.2 2-3.2 4.4-3.2 7.4 0 2.8 1 5.1 2.9 7 2 2 4.2 2.9 7 2.9 1.9 0 3.5-.4 5-1.3 1.6-.9 2.8-2.1 3.6-3.6.9-1.6 1.4-3.2 1.4-5-.1-1.9-.5-3.6-1.4-5.1zm-5 9.1c-1 1-2.3 1.6-3.7 1.6-1.5 0-2.8-.5-3.6-1.5-1-1-1.5-2.4-1.5-3.9 0-1.6.5-2.9 1.5-3.9s2.2-1.6 3.6-1.6c1.5 0 2.8.5 3.7 1.5 1 1 1.5 2.4 1.5 3.9s-.5 2.8-1.5 3.9zM79.1 114.1c-.9 0-1.8.2-2.7.5-.9.4-1.9 1-3 1.9v-2h-4.7v18.8h4.7v-7.6c0-2 .1-3.2.2-3.8.3-1.1.8-2 1.5-2.7.7-.6 1.5-1 2.5-1 .8 0 1.4.2 1.9.6.5.4.9 1 1.1 1.7.2.8.3 2.3.3 4.4v8.3h4.7V121c0-2.2-.6-3.8-1.7-4.9-1.3-1.3-2.9-2-4.8-2zM107.1 116.9c-1.7-1.9-3.8-2.8-6.3-2.8-1.2 0-2.1.2-3.2.7-1 .4-2.7 1.1-2.7 2V108h-6v25h6v-1.6c0 .9 1.8 1.5 2.7 1.9 1 .4 1.9.6 3 .6 2.5 0 4.5-1 6.4-2.9 1.8-1.9 2.6-4.2 2.6-7 .1-2.9-.8-5.3-2.5-7.1zm-3.6 11.1c-1 1.1-2.2 1.6-3.6 1.6-1.5 0-2.8-.5-3.7-1.6-1-1-1.5-2.4-1.5-4 0-1.7.5-3 1.5-3.9 1-1 2.3-1.5 3.7-1.5 1.5 0 2.8.5 3.7 1.6 1 1.1 1.5 2.4 1.5 3.9s-.5 2.8-1.6 3.9zM132 124.5c0-3.1-.6-5.6-2.5-7.5-1.8-2-4-3-7.1-3-2.9 0-5.1 1-6.9 2.9-1.9 1.9-2.7 4.3-2.7 7.2 0 2.8.9 5.1 2.8 7 1.9 1.9 4.3 2.8 7.3 2.8 1.9 0 3.5-.3 4.9-1 1.4-.7 2.6-1.7 3.5-3.1l-4-1.9c-1.3 1.3-2.8 1.9-4.6 1.9-1.5 0-2.7-.1-3.6-.9-1-.8-1.6-1.9-1.8-2.9H132v-1.5zm-14.4-3.5c.5-1 1.1-1.6 1.8-2.1 1-.7 2.2-.9 3.4-.9 1.2 0 2.3 0 3.2.7.9.7 1.6 1.3 1.9 2.3h-10.3zM146.9 114.1c-.9 0-1.8.2-2.7.5-.9.4-1.9 1-3 1.9v-2h-4.7v18.8h4.7v-7.6c0-2 .1-3.2.2-3.8.3-1.1.8-2 1.5-2.7.7-.6 1.5-1 2.5-1 .8 0 1.4.2 1.9.6.5.4.9 1 1.1 1.7.2.8.3 2.3.3 4.4v8.3h4.7V121c0-2.2-.6-3.8-1.7-4.9-1.4-1.3-3-2-4.8-2zM163.2 107.6h-4.7v6.9H156v4h2.5v14.8h4.7v-14.7h2.9v-4h-2.9M186.2 119c-.9-1.5-2.1-2.8-3.6-3.6-1.6-.9-3.2-1.4-5-1.4-2.5 0-4.6.9-6.6 2.6-2.2 2-3.2 4.4-3.2 7.4 0 2.8 1 5.1 2.9 7 2 2 4.2 2.9 7 2.9 1.9 0 3.5-.4 5-1.3 1.6-.9 2.8-2.1 3.6-3.6.9-1.6 1.4-3.2 1.4-5-.2-1.8-.6-3.4-1.5-5zm-5 9c-1 1-2.3 1.6-3.7 1.6-1.5 0-2.8-.5-3.6-1.5-1-1-1.5-2.4-1.5-3.9 0-1.6.5-2.9 1.5-3.9s2.2-1.6 3.6-1.6c1.5 0 2.8.5 3.7 1.5 1 1 1.5 2.4 1.5 3.9s-.5 2.8-1.5 3.9z"/></symbol><symbol viewBox="0 0 200 200" id="project-logo-notorius"><path d="M67.4 79c.1 3.8 2 7.3 5.3 9.2h.2l24.5 14.2.1.1.1.1c1.6.8 3.4 1.3 5.2 1.3 1.9 0 3.7-.5 5.3-1.3.3-.2 2.6-1.5 23.9-13.8 1.7-.9 3.2-2.2 4.3-3.9 1.1-1.8 1.8-3.8 1.8-5.9V51.1c0-2.1-.6-4.2-1.7-6-1.1-1.7-2.5-3-4.3-3.9l-23.7-13.8-.3-.2-.4-.2c-1-.4-3-1.1-4.9-1.1-2.1 0-4.2.6-6 1.8L73 41.3c-3.4 2-5.6 5.7-5.6 9.6V79zm37.8 18.2c-.7.4-1.6.6-2.4.6-.8 0-1.6-.2-2.3-.6l-7.1-4.1v-22c4.7 10.2 9.3 20 9.3 20 1 2.2 2.6 3.9 4.5 4.8-1.3.8-2 1.2-2 1.3zM116 38.9l13.2 7.6c1.6.8 2.8 2.5 2.8 4.4v27.9c0 1.8-1 3.5-2.6 4.3-1.4.7-2.7.8-3.8.5-1.9-.6-3-2.5-3.4-3.3-.1-.2-2.8-6-6.2-13.3V38.9zm-15.9-6.1c.8-.5 1.7-.9 2.8-.9.9 0 2.5.7 2.5.7l6.8 4v22.2c-4.9-10.5-9.8-20.9-9.8-20.9-.8-1.7-2.2-3.2-4-4l1.7-1.1zm-7.6 4.4c1-.5 2.3-.6 3.6-.1 1.3.4 2.3 1.3 2.8 2.4.1.1.1.3.2.5l19.7 42c1 2.1 2.6 3.8 4.4 4.8-2.8 1.6-6.2 3.6-9.3 5.4v-.1c-1.6.9-3 1.1-4.2.7-1.9-.6-3-2.5-3.4-3.3L93.4 62v-.2h-.1l-6-13c-.5-1-.7-1.5-.9-1.8-.8-1.7-2.2-3.1-4-4l10.1-5.8zM73.6 50.9c0-1.8 1-3.4 2.5-4.3l.5-.3c1-.5 2.3-.6 3.5-.2 1.3.4 2.3 1.3 2.8 2.4 0 0 3 6.4 6.6 14.2v28L76 83c-1.4-.9-2.3-2.4-2.4-4.1v-.1-27.9zM77.6 168.2c-.6-.5-1.6-1-2.8-1.3-1.3-.3-2.1-.6-2.5-.8-.4-.3-.6-.6-.6-1.1 0-.5.2-.9.6-1.1.4-.2.9-.4 1.5-.4s1.2.1 1.8.3c.6.2 1.1.5 1.5.8l1.1-1.6c-.6-.5-1.2-.8-2-1.1-.8-.3-1.5-.4-2.3-.4-1.2 0-2.2.3-3.1.9-.8.6-1.2 1.5-1.2 2.6s.4 2 1.1 2.5c.4.3.8.5 1.2.7.5.2 1.2.4 2 .6.9.2 1.5.5 1.9.7.4.3.6.6.6 1.1 0 .5-.2.9-.6 1.1-.4.3-.9.4-1.6.4-1.3 0-2.6-.5-3.9-1.6l-1.3 1.6c1.5 1.3 3.2 2 5.1 2 1.3 0 2.4-.3 3.2-1 .8-.7 1.2-1.5 1.2-2.6.1-1-.2-1.8-.9-2.3zM80 163.7h3.7V174h2.1v-10.3h3.7v-1.9H80M99.9 168.6c0 1.1-.3 2-.8 2.7-.6.7-1.3 1-2.3 1-1 0-1.7-.3-2.3-1-.6-.7-.8-1.5-.8-2.7v-6.8h-2.1v6.9c0 1.8.5 3.1 1.5 4.1 1 1 2.2 1.4 3.7 1.4s2.8-.5 3.7-1.4c1-1 1.5-2.3 1.5-4.1v-6.9h-2.1v6.8zM114.4 163.4c-1.2-1.1-2.9-1.6-5.1-1.6h-4.2V174h4.1c2.4 0 4.1-.6 5.3-1.7 1.1-1.1 1.7-2.6 1.7-4.5 0-1.8-.6-3.3-1.8-4.4zm-1.5 7.6c-.8.7-1.9 1.1-3.4 1.1h-2.3v-8.4h2.1c3.2 0 4.8 1.4 4.8 4.2 0 1.4-.4 2.4-1.2 3.1zM118.9 161.8h2.1V174h-2.1zM130 161.5c-1.8 0-3.4.6-4.6 1.8-1.2 1.2-1.9 2.7-1.9 4.5 0 1.8.6 3.3 1.9 4.5 1.2 1.2 2.8 1.8 4.6 1.8 1.8 0 3.4-.6 4.6-1.8 1.2-1.2 1.9-2.7 1.9-4.5 0-1.8-.6-3.3-1.9-4.5-1.3-1.2-2.8-1.8-4.6-1.8zm3.1 9.5c-.8.9-1.9 1.3-3.1 1.3-1.2 0-2.2-.4-3.1-1.3-.8-.9-1.3-1.9-1.3-3.1 0-1.2.4-2.3 1.3-3.1.8-.9 1.9-1.3 3.1-1.3 1.2 0 2.2.4 3.1 1.3.8.9 1.3 1.9 1.3 3.1-.1 1.2-.5 2.2-1.3 3.1zM23.9 119.9c-2.6 0-4.9 1.1-7 3.2v-2.7H10V145h6.9v-13.7c0-1.9.5-3.4 1.5-4.4 1-1 2.2-1.5 3.6-1.5 2.8 0 4.2 1.9 4.2 5.7V145H33v-15c0-3-.9-5.5-2.6-7.3-1.8-1.9-3.9-2.8-6.5-2.8zM49.7 119.9c-3.7 0-6.8 1.2-9.3 3.7-2.5 2.5-3.7 5.5-3.7 9s1.2 6.6 3.7 9c2.5 2.4 5.6 3.7 9.3 3.7 3.7 0 6.8-1.2 9.3-3.7 2.5-2.4 3.7-5.4 3.7-9s-1.2-6.6-3.7-9c-2.5-2.5-5.6-3.7-9.3-3.7zm4.4 17.7c-1.1 1.3-2.6 1.9-4.4 1.9-1.8 0-3.2-.6-4.4-1.9-1.1-1.3-1.7-2.9-1.7-4.9s.6-3.7 1.7-4.9c1.1-1.3 2.6-1.9 4.4-1.9 1.8 0 3.2.6 4.4 1.9 1.1 1.3 1.7 2.9 1.7 4.9s-.6 3.6-1.7 4.9zM69.9 143c1.6 1.6 3.6 2.3 6 2.3s4.6-1 6.7-2.9l-2.6-4.8c-.9 1.2-2 1.7-3.2 1.7-.7 0-1.3-.3-1.7-.8-.5-.5-.7-1.3-.7-2.2v-11h5.9v-4.9h-5.9V113h-6.9v7.4h-2.9v4.9h2.9v11.3c0 2.7.8 4.8 2.4 6.4zM96.5 119.9c-3.7 0-6.8 1.2-9.3 3.7-2.5 2.5-3.7 5.5-3.7 9s1.2 6.6 3.7 9c2.5 2.4 5.6 3.7 9.3 3.7 3.7 0 6.8-1.2 9.3-3.7 2.5-2.4 3.7-5.4 3.7-9s-1.2-6.6-3.7-9c-2.5-2.5-5.6-3.7-9.3-3.7zm4.4 17.7c-1.1 1.3-2.6 1.9-4.4 1.9-1.8 0-3.2-.6-4.4-1.9-1.1-1.3-1.7-2.9-1.7-4.9s.6-3.7 1.7-4.9c1.1-1.3 2.6-1.9 4.4-1.9 1.8 0 3.2.6 4.4 1.9 1.1 1.3 1.7 2.9 1.7 4.9s-.6 3.6-1.7 4.9zM127.7 126.4v-6.5c-1.4 0-2.7.4-4 1.1-1.3.7-2.4 1.6-3.3 2.6v-3.2h-6.9V145h6.9v-10.7c0-2.4.5-4.3 1.5-5.7 1-1.4 2.5-2.2 4.6-2.2h1.2zM131.1 120.3h6.9v24.6h-6.9zM134.5 110.3c-1.1 0-2.1.4-2.9 1.2-.8.8-1.2 1.7-1.2 2.9 0 1.1.4 2.1 1.2 2.9.8.8 1.7 1.2 2.9 1.2 1.1 0 2.1-.4 2.9-1.2.8-.8 1.2-1.7 1.2-2.9 0-1.1-.4-2.1-1.2-2.9-.8-.8-1.7-1.2-2.9-1.2zM159.2 133.6c0 1.9-.5 3.3-1.5 4.3s-2.2 1.5-3.6 1.5c-2.8 0-4.2-1.9-4.2-5.7v-13.4H143v14.9c0 3.3.9 5.8 2.7 7.5 1.8 1.7 4.1 2.5 6.8 2.5s4.9-1.2 6.6-3.6v3.2h6.9v-24.6h-6.9v13.4zM187.4 132.1c-.9-.5-1.7-1-2.4-1.2-.7-.3-1.8-.6-3.3-1.1-1.6-.5-2.7-.9-3.3-1.3-.7-.4-1-.9-1-1.5 0-1.2 1.1-1.7 3.2-1.7s4.2.7 6.4 2.2l2.6-4.6c-2.9-2-5.8-2.9-8.7-2.9-2.9 0-5.3.7-7.1 2.2-1.8 1.4-2.7 3.3-2.7 5.6s.9 4 2.8 5.1c.9.6 1.7 1 2.4 1.3.7.3 1.8.7 3.1 1.1 1.4.4 2.4.9 3.1 1.4.7.5 1.1 1 1.1 1.6 0 .6-.3 1-.8 1.4-.5.4-1.2.5-2.1.5-2.9 0-5.6-1-8.2-3l-3 4.3c1.6 1.3 3.4 2.2 5.4 2.9 2 .7 3.9 1 5.7 1 2.7 0 5-.7 6.8-2.2 1.8-1.5 2.7-3.4 2.7-5.8-.1-2.5-1-4.3-2.7-5.3z"/></symbol><symbol viewBox="0 0 200 200" id="project-logo-randan"><path d="M113.5 75.9c0 1.6 0 4.1 1.8 4.7 1.2.4 2.4.4 2.8.4.2 0 .3 0 .3.2 0 .3-.5.4-1 .4-1 0-5.7-.1-7.4-.3-1-.1-1.2-.2-1.2-.5 0-.2.1-.3.3-.3.2 0 .4-.8.4-1.6l.7-22.8h-.1l-13.7 23c-1.2 2-1.4 2.4-1.8 2.4-.3 0-.5-.5-1.1-2.1-.9-2.2-3.7-9.8-3.9-10.3-.3-.8-3.9-11.4-4.3-12.6h-.2L81 77.2c-.1.7-.2 1.5-.3 2.3-.1.7.3 1.2 1 1.4.7.2 1.4.2 1.7.2.2 0 .3.1.3.2 0 .3-.4.3-1 .3h-8.8c0-.1.7-1.2 1-1.2.4 0 .7 0 1.3-.1 1.5-.3 1.7-1.3 2.1-3l6.8-28.8c.1-.5.3-.8.6-.8s.4.2.6.7l10.1 27.8 16.5-27.8c.2-.4.4-.7.8-.7.3 0 .4.4.4 1.2l-.6 27z"/><path d="M126.4 68.8c-.5 4.2-1 7.7-1 9.6 0 1.3.1 2.3 1.4 2.4.6.1 1.6.2 2 .2.3 0 .3.1.3.3 0 .2-.3.4-.8.4-2.4 0-5.2-.1-5.4-.1-.2 0-3 .1-4.4.1-.5 0-.7-.1-.7-.4 0-.1.1-.3.4-.3.4 0 .9-.1 1.4-.2.9-.2 1.3-1.1 1.6-2.4.5-1.9.9-5.4 1.4-9.6l1-7.8c.9-6.9 1-8.1 1.1-9.6.1-1.5-.2-2.3-1.2-2.5-.5-.1-1-.2-1.3-.2-.2 0-.3-.1-.3-.3 0-.3.3-.4.8-.4 1.5 0 4.2.1 4.5.1.2 0 3-.1 4.4-.1.5 0 .7.1.7.4 0 .2-.2.3-.4.3-.3 0-.6 0-1.1.1-1.2.2-1.7 1-2 2.5-.3 1.4-.4 2.7-1.3 9.6l-1.1 7.9zM133.3 81.1c-.6-.3-.6-.5-.5-1.7.3-2.2.7-4 .8-4.7.1-.5.2-.7.4-.7.3 0 .3.1.3.5-.1.4-.1 1-.1 1.6.3 3.3 3 4.5 6 4.5 4.3 0 6.7-3.1 7.1-5.9.4-3.1-.7-4.8-4.1-8l-1.8-1.6c-4.2-3.9-4.9-6.6-4.6-9.6.6-4.7 4.5-8 10.2-8 1.7 0 3 .2 4.1.4.8.2 1.2.2 1.5.2.4 0 .4.1.4.3 0 .2-.4 1.7-.8 4.7-.1.7-.2 1-.4 1-.3 0-.3-.2-.3-.6 0-.5-.1-1.7-.3-2.2-.2-.5-1.2-2.3-5.2-2.3-3.1 0-5.7 1.9-6.1 5.1-.3 2.5.7 4 4.5 7.4l1.1 1c4.7 4.1 5.6 6.9 5.2 10.4-.2 1.8-1.4 5.2-4.7 7.3-2.1 1.3-4.5 1.8-6.9 1.8-2.1.3-4.1 0-5.8-.9zM92.2 45.9c0 1.6 0 2.4.2 2.6.2.2.5.3 1.3.3.6 0 1.1 0 1.4-.3.1-.2.3-.5.3-.7 0-.1 0-.1.1-.1s.1 0 .1.2c0 .1-.1.8-.2 1.1-.1.3-.1.3-.7.3-1.6 0-2.4-.1-3-.1h-1.1c-.1 0-.2 0-.2-.1 0 0 0-.1.1-.1h.3c.2 0 .3-.3.3-.6.1-.5.1-1.4.1-2.4v-2-2.4c0-.4-.1-.6-.5-.6h-.4s-.1 0-.1-.1.1-.1.2-.1h2.5c.1 0 .2 0 .2.1 0 0 0 .1-.1.1h-.4c-.3.1-.4.2-.4.6v4.3zM97.5 43.9v-2.4c0-.4-.1-.6-.5-.6h-.4s-.1 0-.1-.1.1-.1.2-.1H100.6c.2 0 .4 0 .5-.1.1 0 .1-.1.2-.1v.1c0 .1-.1.2-.1.5 0 .1 0 .6-.1.7 0 .1 0 .1-.1.1s-.1-.1-.1-.1c0-.1 0-.3-.1-.4-.1-.2-.2-.3-.8-.4h-1.5s-.1 0-.1.1v3.1c0 .1 0 .1.1.1h1.8c.3 0 .4 0 .5-.2.1-.1.1-.1.2-.1 0 0 .1 0 .1.1s-.1.3-.1.6v.7c0 .1 0 .2-.1.2s-.1 0-.1-.1v-.4c0-.2-.1-.3-.6-.4-.3 0-1.4-.1-1.6-.1-.1 0-.1 0-.1.1v2.9c0 .8.2.9 1.3.9.3 0 .8 0 1.1-.1.3-.1.4-.3.5-.8 0-.1 0-.2.1-.2s.1.1.1.2-.1.8-.1 1.1c-.1.3-.2.3-.6.3-1.7 0-2.4-.1-2.8-.1h-1c-.1 0-.2 0-.2-.1 0 0 0-.1.1-.1s.2 0 .3-.1c.2 0 .3-.3.3-.6.1-.5.1-1.4.1-2.4v-1.7zM103.2 48.9c-.2-.1-.2-.1-.2-.4 0-.6 0-1 .1-1.2 0-.1 0-.2.1-.2s.1 0 .1.1v.4c.2.8.9 1.1 1.6 1.1 1.1 0 1.6-.8 1.6-1.5 0-.8-.3-1.2-1.3-2l-.5-.4c-1.2-1-1.4-1.7-1.4-2.4 0-1.2.9-2 2.3-2 .4 0 .8 0 1 .1.2 0 .3.1.4.1.1 0 .1 0 .1.1v1.2c0 .2 0 .3-.1.3s-.1-.1-.1-.1c0-.1-.1-.4-.1-.6-.1-.1-.4-.6-1.4-.6-.8 0-1.4.5-1.4 1.3 0 .6.3 1 1.4 1.9l.3.2c1.3 1 1.6 1.7 1.6 2.6 0 .5-.2 1.3-1 1.9-.5.3-1.1.5-1.7.5-.5-.1-1-.1-1.4-.4zM15.3 107.8v-2.4c0-.1 0-.2.1-.2s.5-.1.7-.1c1.3 0 2.6.2 3.7 1.3.5.5 1.1 1.4 1.1 2.8 0 1-.3 2.1-.9 2.7-.7.7-1.6 1-2.7 1-1.3 0-1.8-.2-1.9-.4-.1-.1-.1-.6-.1-.9v-3.8zm-.9 2.2c0 1.1 0 2-.1 2.4 0 .3-.1.6-.3.6h-.3c-.1 0-.1 0-.1.1s.1.1.2.1h1.1c.1 0 1.5.1 2.5.1 1.9 0 2.9-.8 3.4-1.3.6-.7 1.2-1.7 1.2-3.2 0-1.3-.5-2.3-1.1-2.8-1.3-1.4-3.4-1.3-4.5-1.3h-2.8c-.1 0-.2 0-.2.1 0 0 0 .1.1.1h.4c.4.1.5.3.5.6v4.5zM23.9 108v-2.4c0-.4-.1-.6-.5-.6H23s-.1 0-.1-.1.1-.1.2-.1H27c.2 0 .4 0 .5-.1.1 0 .1-.1.2-.1v.1c0 .1-.1.2-.1.5 0 .1 0 .6-.1.7 0 .1 0 .1-.1.1s-.1-.1-.1-.1c0-.1 0-.3-.1-.4-.1-.2-.2-.3-.8-.4h-1.5s-.1 0-.1.1v3.1c0 .1 0 .1.1.1h1.8c.3 0 .4 0 .5-.2.1-.1.1-.1.2-.1 0 0 .1 0 .1.1s-.1.3-.1.6v.7c0 .1 0 .2-.1.2s-.1 0-.1-.1v-.4c0-.2-.1-.3-.6-.4-.3 0-1.4-.1-1.6-.1-.1 0-.1 0-.1.1v2.9c0 .8.2.9 1.3.9.3 0 .8 0 1.1-.1.3-.1.4-.3.5-.8 0-.1 0-.2.1-.2s.1.1.1.2-.1.8-.1 1.1c-.1.3-.2.3-.6.3-1.7 0-2.4-.1-2.8-.1h-1.1c-.1 0-.2 0-.2-.1 0 0 0-.1.1-.1s.2 0 .3-.1c.2 0 .3-.3.3-.6.1-.5.1-1.4.1-2.4V108zM83.4 35.9l-2.4-.1-3.2.2-9.6 44.3h11.2l-.2 1.2H55.1l.3-1.2h6.8c.3-1.8.5-3.7.5-5.6 0-7.1-3.1-12.8-9.3-16.2C49 67.5 45 76.4 39.8 85l-.6.9c-4.5 6.2-10.6 12.9-18.8 12.9-5.2 0-10.4-3.8-10.4-9.3 0-3.3 2.6-6.5 6-6.5 2.2 0 4.2 1.5 4.2 3.8 0 1.9-1.6 3.5-3.6 3.5-3.1 0-4.1-3-2.9-5.5-1.6 1-2.6 3-2.6 4.8 0 4.9 4.6 8.1 9.2 8.1 7.9 0 13.3-6.8 17.3-12.9-4.1-3.7-7.4-8.1-7.4-14 0-8.7 7.1-15.1 15.7-15.1 2.2 0 4.5.6 6.6 1.2C58.9 45.6 66.7 34.3 81 34.6l2.7.1-.3 1.2zM45.9 56.8c-8 0-14.6 5.9-14.6 14 0 5.7 2.8 9.5 6.9 13.1 4.7-8.5 8.7-17.5 13.8-26-2.1-.6-4-1.1-6.1-1.1zm8 .7c6.8 4.1 9.4 8.8 9.8 16.7l8.1-36.7c-9 4.2-13.4 11.6-17.9 20zM161.7 128c-14.3 15.7-37.2 26.6-56.4 27-57.8 1-57.3-44.1-62.4-43.9h-1.6l-1.4 6.5 2.7.7-.1.7-2.7-.6-1.4 6.7H43l-.2.7H30.2l.2-.7h4.4l1.7-8.3c-3.3-2-5.7-5.2-5.7-9.1 0-7.3 6.5-11.3 13.1-11.7 1.7-1.9 3.7-3.7 5.8-5l.4.5c-1.6 1.2-3 2.8-4.1 4.5 4.1.3 9.3 1.6 9.3 6.8 0 4.4-3.9 6.9-7.8 7.6 2.8 2.3 6.1 27.5 30.1 38.9 22 10.5 53.7 5.8 79.9-22.2 6.2-6.6 14-12 21.6-11.5 8.4.5 10.7 6.4 10.7 9.2 0 2.5-.9 7.4-6.9 7.4-2.3 0-3.8-1.8-3.6-4.2.1-1.3 1.4-3.1 3.5-3.1 2.4 0 3.5 1.8 3.5 3.1 0 1.1 0 1.9-.8 2.7 0 0 3.2-1.2 3.2-5.9 0-3.8-4.3-7.7-9.3-7.7-5 0-8.3 2-10.9 3.9-2.4 2.1-6.1 6.2-6.8 7zM31.6 107.8c0 3.6 2 6.5 5.1 8.3 1.5-7 2.5-13.4 6.7-19.3-6 .6-11.8 4.3-11.8 11zm14.1-11c-2.5 4.4-3.2 8.7-4.2 13.7 5-.3 10-1.6 10-7.7 0-3.8-2.2-5.5-5.8-6z"/><path d="M63.4 113.5c-.1 0-.1-.1-.1-.2l3.3-6.9c0-.1.1-.3.2-.3s.1.1.1.3l1.8 6.9c0 .1 0 .2-.2.2h-5.1zm5.6 1.4c.1 0 .2.1.3.2l1.6 6c.1.3-.1.6-.3.6-.3 0-.4.1-.4.2 0 .2.3.2.8.2 2.2.1 4.3.1 5.3.1s1.3-.1 1.3-.3c0-.2-.1-.2-.3-.2-.3 0-.8 0-1.2-.1-.6-.1-1.3-.5-2.1-3.1-1.3-4.3-4.6-15.7-5.1-17.3-.2-.6-.4-.9-.6-.9-.3 0-.5.3-.9 1.1L58.5 119c-.7 1.4-1.3 2.4-2.7 2.5-.2 0-.6.1-.9.1-.2 0-.3.1-.4.2 0 .2.1.3.5.3 1.5 0 3-.1 3.3-.1.9 0 2.1.1 3 .1.3 0 .5-.1.5-.3 0-.2-.1-.2-.4-.2H61c-.9 0-1.1-.4-1-.9 0-.3.2-1 .6-1.7l1.9-4c.1-.2.1-.2.3-.2H69z"/><path d="M79.6 118.4c-.2 2.2.1 2.9.7 3.1.5.2 1 .2 1.4.2.3 0 .5.1.5.2 0 .2-.3.3-.7.3-1.8 0-2.9-.1-3.5-.1-.3 0-1.6.1-3 .1-.4 0-.6 0-.6-.3 0-.2.2-.2.5-.2.4 0 .9 0 1.3-.1.8-.2 1-1 1.2-3.5l2-16.6c.1-.6.2-.9.5-.9s.5.4.9.9c.3.4 4.1 4.9 7.7 9 1.7 1.9 5.1 5.9 5.5 6.4h.1l1.1-12.6c.2-1.7 0-2.2-.7-2.5-.4-.2-1.1-.2-1.5-.2-.3 0-.4-.1-.4-.2 0-.2.3-.2.8-.2 1.5 0 2.8.1 3.4.1.3 0 1.4-.1 2.8-.1.4 0 .6 0 .6.2s-.2.2-.5.2-.5 0-.9.1c-.8.2-1.1.8-1.3 2.4l-2.2 17.7c-.1.6-.2.9-.5.9s-.6-.3-.9-.6c-1.6-1.7-4.8-5.4-7.4-8.2-2.7-3-5.5-6.5-5.9-7.1h-.1l-.9 11.6z"/><path d="M105.4 108.7c.2-2.2.5-4.6.6-5.6 0-.3.1-.4.4-.6.2-.1 1.3-.2 1.8-.2 2.2 0 5.3.3 7.7 2.8 1.1 1.1 2.3 3.4 1.9 7-.3 2.9-1.1 5.4-3.1 7-1.8 1.5-3.8 2-6.7 2-2.2 0-3.2-.6-3.6-1.1-.2-.3-.1-1.4-.1-2.1 0-.5.2-2.7.5-5.7l.6-3.5zm-4.1 5.4c-.3 2.6-.5 4.8-.8 6-.2.8-.4 1.4-1 1.5-.3.1-.6.1-1 .1-.3 0-.5.1-.5.2 0 .2.2.3.5.3 1.1 0 2.9-.1 3.5-.1 1.4 0 3.9.3 5.9.3 5.2 0 8.3-2 9.7-3.3 1.7-1.6 3.5-4.3 3.9-7.8.4-3.3-.7-5.7-2-7.1-2.7-3.2-7.4-3.2-10.9-3.2-1.7 0-3.5.1-4.3.1-.8 0-2.5-.1-4-.1-.4 0-.6.1-.6.2 0 .2.1.2.5.2s.9 0 1.1.1c.9.2 1.1.6 1 1.6 0 .9-.1 1.7-.6 5.9l-.4 5.1zM126.5 113.5c-.1 0-.1-.1-.1-.2l3.3-6.9c0-.1.1-.3.2-.3s.1.1.1.3l1.8 6.9c0 .1 0 .2-.2.2h-5.1zm5.5 1.4c.1 0 .2.1.3.2l1.6 6c.1.3-.1.6-.3.6-.3 0-.4.1-.4.2 0 .2.3.2.8.2 2.2.1 4.3.1 5.3.1s1.3-.1 1.3-.3c0-.2-.1-.2-.3-.2-.3 0-.8 0-1.2-.1-.6-.1-1.3-.5-2.1-3.1-1.3-4.3-4.6-15.7-5.1-17.3-.2-.6-.4-.9-.6-.9-.3 0-.5.3-.9 1.1l-8.9 17.6c-.7 1.4-1.3 2.4-2.7 2.5-.2 0-.6.1-.9.1-.2 0-.3.1-.4.2 0 .2.1.3.5.3 1.5 0 3-.1 3.3-.1.9 0 2.1.1 3 .1.3 0 .5-.1.5-.3 0-.2-.1-.2-.4-.2h-.4c-.9 0-1.1-.4-1-.9 0-.3.2-1 .6-1.7l1.9-4c.1-.2.1-.2.3-.2h6.2z"/><path d="M143.7 118.4c-.2 2.2.1 2.9.7 3.1.5.2 1 .2 1.4.2.3 0 .5.1.5.2 0 .2-.3.3-.7.3-1.8 0-2.9-.1-3.5-.1-.3 0-1.6.1-3 .1-.4 0-.6 0-.6-.3 0-.2.2-.2.5-.2.4 0 .9 0 1.3-.1.8-.2 1-1 1.2-3.5l2-16.6c.1-.6.2-.9.5-.9s.5.4.9.9c.3.4 4.1 4.9 7.7 9 1.7 1.9 5.1 5.9 5.5 6.4h.1l1.1-12.6c.2-1.7 0-2.2-.7-2.5-.4-.2-1.1-.2-1.5-.2-.3 0-.4-.1-.4-.2 0-.2.3-.2.8-.2 1.5 0 2.8.1 3.4.1.3 0 1.4-.1 2.8-.1.4 0 .6 0 .6.2s-.2.2-.5.2-.5 0-.9.1c-.8.2-1.1.8-1.3 2.4l-2.2 17.7c-.1.6-.2.9-.5.9s-.6-.3-.9-.6c-1.6-1.7-4.8-5.4-7.4-8.2-2.7-3-5.5-6.5-5.9-7.1h-.1l-.9 11.6z"/><g><path d="M58.2 87.9h2.7c2.1 0 3.7 1.6 3.7 3.7s-1.7 3.7-3.7 3.7h-2.7v-7.4zm1.9 5.8h.4c1.1 0 2.1-.6 2.1-2.1 0-1.3-.9-2.1-2.1-2.1H60v4.2zM73.7 87.9V92c0 .9 0 1.9-.8 2.6-.6.6-1.6.8-2.4.8-.9 0-1.8-.2-2.4-.8-.7-.7-.8-1.7-.8-2.6v-4.1h1.9v3.9c0 1 .1 2 1.3 2s1.3-1 1.3-2v-3.9h1.9zM81.8 87.9h2.7c2.1 0 3.7 1.6 3.7 3.7s-1.7 3.7-3.7 3.7h-2.7v-7.4zm1.9 5.8h.4c1.1 0 2.1-.6 2.1-2.1 0-1.3-.9-2.1-2.1-2.1h-.4v4.2zM98.7 91.5c0 2.4-1.7 4.1-4.1 4.1-2.4 0-4.1-1.7-4.1-4.1 0-2.2 2-3.8 4.1-3.8 2.1 0 4.1 1.5 4.1 3.8zm-6.2 0c0 1.3.9 2.2 2.1 2.2 1.1 0 2.1-.9 2.1-2.2 0-1-.9-1.9-2.1-1.9-1.2-.1-2.1.9-2.1 1.9zM102.1 87.9h1.9l1.5 3.9 1.6-3.9h1.9l1.1 7.4h-1.9l-.5-4.2-1.8 4.2h-.8l-1.7-4.2-.6 4.2h-1.9l1.2-7.4zM114.6 94l-.5 1.3h-2l2.8-7.4h2.1l2.8 7.4h-2l-.5-1.3h-2.7zm1.3-3.8l-.8 2.3h1.6l-.8-2.3zM124 95.3h-1.9v-7.4h1.9v7.4zM127 87.9h1.9l3.5 4.5v-4.5h1.9v7.4h-1.9l-3.5-4.5v4.5H127v-7.4zM139.3 89.5v1.2h2.2v1.6h-2.2v1.3h2.3v1.6h-4.2v-7.4h4.2v1.6h-2.3zM155.8 95.3h-2.4l-1.8-2.8v2.8h-1.9v-7.4h2.9c1.5 0 2.6.7 2.6 2.3 0 1-.6 1.9-1.6 2.1l2.2 3zm-4.2-4.1h.2c.6 0 1.3-.1 1.3-.9s-.7-.9-1.3-.9h-.2v1.8zM165.9 91.5c0 2.4-1.7 4.1-4.1 4.1-2.4 0-4.1-1.7-4.1-4.1 0-2.2 2-3.8 4.1-3.8 2.1 0 4.1 1.5 4.1 3.8zm-6.2 0c0 1.3.9 2.2 2.1 2.2 1.1 0 2.1-.9 2.1-2.2 0-1-.9-1.9-2.1-1.9-1.2-.1-2.1.9-2.1 1.9zM167.7 87.9h2.3l1.4 2 1.4-2h2.3l-2.7 3.8v3.5h-1.9v-3.5l-2.8-3.8zM178 94l-.5 1.3h-2l2.8-7.4h2.1l2.8 7.4h-2l-.5-1.3H178zm1.3-3.8l-.8 2.3h1.6l-.8-2.3zM187.4 93.7h2.3v1.6h-4.2v-7.4h1.9v5.8zM79.2 164s6.5-3.8 7.1-4.6c.7-.9-1.2-.6-1.5-1.3-.5-1.5 1.6-1.2 1.7-2.2.1-1-2.3-2.7-.5-4.4 1.4-1.3 2.6.6 3.4-.1 1.1-1-1.7-4.9-.9-6.7 1.4-2.9 3.8 1 4.8 0 1.1-1.2-1.3-5.8 1.1-7.3 2.1-1.3 3.4 1.7 4.6 1.7 1.4 0 .3-5.4 2.6-6.3 2.2-.8 3 1.6 4 1.6s.2-3 1.7-3.7c1.8-.8 2.7 1.6 3.7 1.6 1-.1.6-1.6 1.8-1.6.9.1.9.8 1.6 1.1.7.3 1.4-1 2.3-.2.9.9-.4 1.8 0 2.4.2.5 1.1.3 1.4 1 .6 1.2-1 1.3-.8 2.1.1.6 1.6.5 1.8 1.8.3 2.3-3.9 2.6-3.8 3.7.1 1.1 3 .3 3.1 2.5.1 2.6-6.1 3.7-5.7 5.2.2.7 3.2.5 3.1 2.5-.2 3.4-8.3 2.7-8.9 4.2-.4 1 2.1 1.1 1 3.1-1.8 3.2-7.9-1-8.6-.2-.7.7 1.5 2-.3 3.1-2.3 1.4-6.2-3.3-7-3.1-.9.2-.3 1.6-1.3 2.2-1.9 1.1-1.6-2.5-3.5-2.3-2.1.5-5.4 5.5-5.4 5.5s-.6-1.2-2.6-1.3z"/></g></symbol></svg>